# Blender v2.76 (sub 0) OBJ File: 'Barrell.blend'
# www.blender.org
mtllib Barrell_Broke.mtl
o Cube.003_Cube.004
v -0.307883 -0.453111 1.011889
v 0.000000 -0.453111 0.704006
v 0.307883 -0.453111 1.011889
v 0.000000 -0.453111 1.319772
v 0.000000 -0.463813 1.011889
v 0.006428 -0.104125 1.312583
v 0.000000 -0.267243 1.305064
v 0.307883 -0.017314 1.011889
v 0.293175 -0.267243 1.011889
v 0.000000 -0.017314 0.704006
v 0.000000 -0.267243 0.718715
v -0.301456 -0.104125 1.004700
v -0.293175 -0.267243 1.011889
v 0.000000 -0.364848 1.324750
v 0.312861 -0.364848 1.011889
v 0.000000 -0.364848 0.699028
v -0.312861 -0.364848 1.011889
v -0.281769 -0.193722 1.004700
v 0.000000 -0.169981 0.723692
v 0.288197 -0.169981 1.011889
v 0.006428 -0.193722 1.292897
v 0.000000 -0.068006 1.307758
v 0.000000 0.058134 0.716021
v 0.295868 0.058134 1.011889
v -0.295868 -0.068006 1.011889
v 0.000000 -0.110741 0.770912
v 0.240977 -0.110741 1.011889
v -0.240977 -0.173811 1.011889
v 0.000000 -0.173811 1.252866
v 0.132067 -0.279616 1.011889
v -0.132067 -0.279616 1.011889
v 0.000000 -0.279616 1.143956
v 0.000000 -0.279616 0.879822
v -0.307883 -0.068006 1.011889
v 0.000000 0.058134 0.704006
v 0.307883 0.058134 1.011889
v 0.000000 -0.068006 1.319772
v -0.230912 -0.453111 0.780977
v -0.230912 -0.461138 1.011889
v 0.230912 -0.453111 0.780977
v 0.000000 -0.461138 0.780977
v 0.230912 -0.453111 1.242802
v 0.230912 -0.461138 1.011889
v 0.000000 -0.461138 1.242802
v -0.234646 -0.364848 1.246535
v -0.206506 -0.205592 1.217253
v -0.229305 -0.053550 0.779180
v -0.219881 -0.267243 0.792008
v 0.230912 -0.002781 0.780977
v 0.219881 -0.267243 0.792008
v 0.232519 -0.053550 1.241004
v 0.219881 -0.267243 1.231770
v 0.009641 -0.144584 1.304066
v 0.000000 -0.301666 1.322317
v 0.302962 -0.093205 1.011889
v 0.310428 -0.301666 1.011889
v 0.000000 -0.093205 0.708928
v 0.000000 -0.301666 0.701461
v -0.293320 -0.144584 1.001105
v -0.310428 -0.301666 1.011889
v -0.234646 -0.364848 0.777244
v 0.234646 -0.364848 0.777244
v 0.234646 -0.364848 1.246535
v -0.230912 -0.453111 1.242802
v 0.000000 -0.425694 1.321017
v 0.309128 -0.425694 1.011889
v 0.000000 -0.425694 0.702762
v -0.309128 -0.425694 1.011889
v -0.219881 -0.267243 1.231770
v -0.214541 -0.175917 0.793944
v 0.216148 -0.169981 0.795742
v 0.217755 -0.175917 1.226240
v -0.277991 -0.238841 1.010092
v 0.000000 -0.232906 0.732291
v 0.279598 -0.232906 1.011889
v 0.001607 -0.238841 1.289690
v -0.230912 -0.102009 1.242802
v -0.304879 -0.068006 1.011889
v 0.000000 0.058134 0.707010
v 0.304879 0.058134 1.011889
v 0.000000 -0.068006 1.316769
v -0.276138 -0.094457 1.011889
v 0.000000 0.015915 0.735751
v 0.276138 0.015915 1.011889
v 0.000000 -0.094457 1.288027
v -0.221901 -0.102009 1.233791
v 0.221901 -0.002468 1.233791
v 0.221901 0.087201 0.789988
v -0.221901 -0.002468 0.789988
v -0.192311 -0.253165 1.011889
v 0.000000 -0.237397 0.819578
v 0.192311 -0.237397 1.011889
v 0.000000 -0.253165 1.204200
v 0.180733 -0.096207 0.831157
v -0.180733 -0.141042 0.831157
v 0.180733 -0.141042 1.192622
v -0.180733 -0.190812 1.192622
v -0.082542 -0.279616 1.094431
v 0.082542 -0.279616 1.094431
v 0.082542 -0.279616 0.929348
v -0.082542 -0.279616 0.929348
v -0.230912 -0.002468 0.780977
v 0.230912 0.087201 0.780977
v 0.230912 -0.002468 1.242802
v -0.221271 -0.132997 1.232017
v -0.306276 -0.077036 1.010092
v 0.000000 0.039272 0.704006
v 0.307883 0.039272 1.011889
v 0.001607 -0.077036 1.317975
v -0.171046 -0.459057 1.182935
v -0.171046 -0.459057 0.840843
v 0.171046 -0.459057 1.182935
v 0.171046 -0.459057 0.840843
v -0.232821 -0.301666 1.244710
v -0.212759 -0.166640 1.222934
v -0.224811 -0.109683 0.781972
v -0.232821 -0.301666 0.779068
v 0.227221 -0.089572 0.784668
v 0.232821 -0.301666 0.779068
v 0.229632 -0.109683 1.236414
v 0.232821 -0.301666 1.244710
v -0.231846 -0.425694 0.780044
v 0.231846 -0.425694 0.780044
v 0.231846 -0.425694 1.243735
v -0.231846 -0.425694 1.243735
v -0.207288 -0.241809 1.218892
v -0.209297 -0.234390 0.801741
v 0.209699 -0.232906 0.802191
v 0.210100 -0.234390 1.221139
v -0.228660 -0.102009 1.240549
v -0.228660 -0.002468 0.783230
v 0.228660 0.087201 0.783230
v 0.228660 -0.002468 1.240549
v -0.207104 -0.124210 1.218993
v -0.207104 -0.037111 0.804786
v 0.207104 0.041349 0.804786
v 0.207104 -0.037111 1.218993
v -0.140106 -0.257415 1.151996
v -0.140106 -0.244973 0.871783
v 0.140106 -0.233764 0.871783
v 0.140106 -0.244973 1.151996
v 0.000000 -0.279616 1.011889
v -0.230511 -0.015239 0.780528
v 0.230912 0.064706 0.780977
v 0.231314 -0.015239 1.242352
v -0.228502 -0.109756 1.240106
vn -0.947800 -0.043000 0.315900
vn -0.947800 -0.043000 -0.315900
vn -0.086500 -0.995600 -0.034600
vn -0.086500 -0.995600 0.034600
vn -0.315900 -0.043000 -0.947800
vn 0.315900 -0.043000 -0.947800
vn 0.034600 -0.995600 -0.086500
vn -0.034600 -0.995600 -0.086500
vn 0.947800 -0.043000 -0.315900
vn 0.947800 -0.043000 0.315900
vn 0.086500 -0.995600 0.034600
vn 0.086500 -0.995600 -0.034600
vn 0.315900 -0.043000 0.947800
vn -0.315900 -0.043000 0.947800
vn -0.034600 -0.995600 0.086500
vn 0.034600 -0.995600 0.086500
vn -0.013900 -0.999800 0.013900
vn -0.013900 -0.999800 -0.013900
vn 0.013900 -0.999800 -0.013900
vn 0.013900 -0.999800 0.013900
vn 0.283400 0.406600 0.868600
vn -0.278500 0.502900 0.818300
vn -0.285600 0.429400 0.856800
vn 0.285600 0.429400 0.856800
vn 0.888300 0.351200 -0.296100
vn 0.886600 0.355100 0.296300
vn 0.856800 0.429400 0.285600
vn 0.856800 0.429400 -0.285600
vn -0.296200 0.354400 -0.887000
vn 0.296100 0.351200 -0.888300
vn 0.285600 0.429400 -0.856800
vn -0.285600 0.429400 -0.856800
vn -0.820300 0.499300 0.279000
vn -0.870000 0.402800 -0.284300
vn -0.856800 0.429400 -0.285600
vn -0.856800 0.429400 0.285600
vn 0.316000 0.036500 0.948100
vn -0.316000 0.036500 0.948100
vn -0.315700 -0.058100 0.947100
vn 0.315700 -0.058100 0.947100
vn 0.948100 0.036500 -0.316000
vn 0.948100 0.036500 0.316000
vn 0.947100 -0.058100 0.315700
vn 0.947100 -0.058100 -0.315700
vn -0.316000 0.036500 -0.948100
vn 0.316000 0.036500 -0.948100
vn 0.315700 -0.058100 -0.947100
vn -0.315700 -0.058100 -0.947100
vn -0.948100 0.036500 0.316000
vn -0.948100 0.036500 -0.316000
vn -0.947100 -0.058100 -0.315700
vn -0.947100 -0.058100 0.315700
vn 0.321700 -0.067700 0.944400
vn -0.273500 -0.309400 0.910700
vn -0.299300 -0.265100 0.916600
vn 0.317500 -0.126400 0.939800
vn 0.948700 0.000000 -0.316200
vn 0.949000 0.007600 0.315200
vn 0.950400 -0.066800 0.303800
vn 0.946400 -0.057300 -0.317800
vn -0.315000 0.009500 -0.949100
vn 0.316200 0.000000 -0.948700
vn 0.317800 -0.057300 -0.946400
vn -0.302700 -0.065900 -0.950800
vn -0.915200 -0.293200 0.276600
vn -0.945600 -0.054100 -0.320700
vn -0.939600 -0.120200 -0.320300
vn -0.918600 -0.257600 0.299600
vn -0.927900 -0.195100 0.317600
vn -0.922800 -0.217400 -0.318000
vn -0.942200 -0.121800 -0.312000
vn -0.945000 -0.006500 0.327100
vn -0.295000 -0.196000 -0.935200
vn 0.312600 -0.175500 -0.933500
vn 0.313600 -0.128600 -0.940800
vn -0.307700 -0.140400 -0.941100
vn 0.933500 -0.175500 -0.312600
vn 0.934900 -0.195300 0.296300
vn 0.941000 -0.138900 0.308400
vn 0.940800 -0.128600 -0.313600
vn 0.314100 -0.212300 0.925400
vn -0.319700 -0.188700 0.928600
vn -0.328100 0.004400 0.944600
vn 0.310000 -0.113000 0.944000
vn -0.130700 0.989800 -0.056000
vn -0.245300 0.963700 0.105100
vn -0.400600 0.522400 -0.752700
vn 0.169700 0.604200 -0.778600
vn -0.112100 0.992500 -0.048000
vn -0.228000 0.968700 0.097700
vn 0.180300 0.431700 0.883800
vn -0.335400 0.392200 0.856600
vn -0.097700 0.968700 0.228000
vn 0.048000 0.992500 0.112100
vn -0.856600 0.392200 0.335400
vn -0.883800 0.431700 -0.180300
vn -0.105100 0.963700 0.245300
vn 0.056000 0.989800 0.130700
vn 0.778600 0.604200 -0.169700
vn 0.752700 0.522400 0.400600
vn -0.329200 0.245200 0.911900
vn 0.250000 0.276200 0.928000
vn 0.263600 0.388400 0.883000
vn -0.327600 0.347300 0.878700
vn -0.928000 0.276200 -0.250000
vn -0.911900 0.245200 0.329200
vn -0.878700 0.347300 0.327600
vn -0.883000 0.388400 -0.263600
vn 0.864300 0.343100 0.367800
vn 0.877500 0.413800 -0.242600
vn 0.796100 0.554500 -0.242300
vn 0.811600 0.471800 0.344700
vn 0.242600 0.413800 -0.877500
vn -0.367800 0.343100 -0.864300
vn -0.344700 0.471800 -0.811600
vn 0.242300 0.554500 -0.796100
vn -0.471500 0.862000 -0.186100
vn -0.501900 0.830100 0.242900
vn 0.000000 1.000000 0.000000
vn 0.370900 0.906300 0.202800
vn 0.323600 0.937200 -0.129900
vn 0.129900 0.937200 -0.323600
vn -0.202800 0.906300 -0.370900
vn -0.242900 0.830100 0.501900
vn 0.186100 0.862000 0.471500
vn 0.055000 0.990200 0.128200
vn -0.103200 0.965100 0.240800
vn -0.943300 -0.053200 -0.327600
vn -0.918800 -0.291300 0.266300
vn -0.223800 0.969900 0.095900
vn -0.109900 0.992800 -0.047100
vn -0.317700 0.009400 -0.948100
vn 0.047100 0.992800 0.109900
vn -0.095900 0.969900 0.223800
vn 0.948200 0.007500 0.317400
vn -0.240800 0.965100 0.103200
vn -0.128200 0.990200 -0.054900
vn -0.262600 -0.307800 0.914500
vn 0.330300 -0.066600 0.941500
usemtl Material
s off
f 1//1 64//1 125//1 68//1
f 1//2 68//2 122//2 38//2
f 1//3 38//3 111//3 39//3
f 1//4 39//4 110//4 64//4
f 2//5 38//5 122//5 67//5
f 2//6 67//6 123//6 40//6
f 2//7 40//7 113//7 41//7
f 2//8 41//8 111//8 38//8
f 3//9 40//9 123//9 66//9
f 3//10 66//10 124//10 42//10
f 3//11 42//11 112//11 43//11
f 3//12 43//12 113//12 40//12
f 4//13 42//13 124//13 65//13
f 4//14 65//14 125//14 64//14
f 4//15 64//15 110//15 44//15
f 4//16 44//16 112//16 42//16
f 5//17 44//17 110//17 39//17
f 5//18 39//18 111//18 41//18
f 5//19 41//19 113//19 43//19
f 5//20 43//20 112//20 44//20
f 7//21 52//21 129//21 76//21
f 7//22 76//22 126//22 69//22
f 7//23 69//23 114//23 54//23
f 7//24 54//24 121//24 52//24
f 9//25 50//25 128//25 75//25
f 9//26 75//26 129//26 52//26
f 9//27 52//27 121//27 56//27
f 9//28 56//28 119//28 50//28
f 11//29 48//29 127//29 74//29
f 11//30 74//30 128//30 50//30
f 11//31 50//31 119//31 58//31
f 11//32 58//32 117//32 48//32
f 13//33 69//33 126//33 73//33
f 13//34 73//34 127//34 48//34
f 13//35 48//35 117//35 60//35
f 13//36 60//36 114//36 69//36
f 14//37 63//37 121//37 54//37
f 14//38 54//38 114//38 45//38
f 14//39 45//39 125//39 65//39
f 14//40 65//40 124//40 63//40
f 15//41 62//41 119//41 56//41
f 15//42 56//42 121//42 63//42
f 15//43 63//43 124//43 66//43
f 15//44 66//44 123//44 62//44
f 16//45 61//45 117//45 58//45
f 16//46 58//46 119//46 62//46
f 16//47 62//47 123//47 67//47
f 16//48 67//48 122//48 61//48
f 17//49 45//49 114//49 60//49
f 17//50 60//50 117//50 61//50
f 17//51 61//51 122//51 68//51
f 17//52 68//52 125//52 45//52
usemtl Material.001
f 6//53 51//53 145//53 109//53
f 6//54 109//54 146//54 105//54
f 6//55 105//55 115//55 53//55
f 6//56 53//56 120//56 51//56
f 8//57 49//57 144//57 108//57
f 8//58 108//58 145//58 51//58
f 8//59 51//59 120//59 55//59
f 8//60 55//60 118//60 49//60
f 10//61 47//61 143//61 107//61
f 10//62 107//62 144//62 49//62
f 10//63 49//63 118//63 57//63
f 10//64 57//64 116//64 47//64
f 12//65 105//65 146//65 106//65
f 12//66 106//66 143//66 47//66
f 12//67 47//67 116//67 59//67
f 12//68 59//68 115//68 105//68
f 18//69 46//69 115//69 59//69
f 18//70 59//70 116//70 70//70
f 18//71 70//71 127//71 73//71
f 18//72 73//72 126//72 46//72
f 19//73 70//73 116//73 57//73
f 19//74 57//74 118//74 71//74
f 19//75 71//75 128//75 74//75
f 19//76 74//76 127//76 70//76
f 20//77 71//77 118//77 55//77
f 20//78 55//78 120//78 72//78
f 20//79 72//79 129//79 75//79
f 20//80 75//80 128//80 71//80
f 21//81 72//81 120//81 53//81
f 21//82 53//82 115//82 46//82
f 21//83 46//83 126//83 76//83
f 21//84 76//84 129//84 72//84
f 22//85 86//85 130//85 81//85
f 22//86 81//86 133//86 87//86
f 22//87 87//87 137//87 85//87
f 22//88 85//88 134//88 86//88
f 23//89 88//89 132//89 79//89
f 23//90 79//90 131//90 89//90
f 23//91 89//91 135//91 83//91
f 23//92 83//92 136//92 88//92
f 24//93 87//93 133//93 80//93
f 24//94 80//94 132//94 88//94
f 24//95 88//95 136//95 84//95
f 24//96 84//96 137//96 87//96
f 25//97 89//97 131//97 78//97
f 25//98 78//98 130//98 86//98
f 25//99 86//99 134//99 82//99
f 25//100 82//100 135//100 89//100
f 26//101 94//101 136//101 83//101
f 26//102 83//102 135//102 95//102
f 26//103 95//103 139//103 91//103
f 26//104 91//104 140//104 94//104
f 27//105 96//105 137//105 84//105
f 27//106 84//106 136//106 94//106
f 27//107 94//107 140//107 92//107
f 27//108 92//108 141//108 96//108
f 28//109 95//109 135//109 82//109
f 28//110 82//110 134//110 97//110
f 28//111 97//111 138//111 90//111
f 28//112 90//112 139//112 95//112
f 29//113 97//113 134//113 85//113
f 29//114 85//114 137//114 96//114
f 29//115 96//115 141//115 93//115
f 29//116 93//116 138//116 97//116
f 30//117 99//117 141//117 92//117
f 30//118 92//118 140//118 100//118
f 30//119 100//119 142//119 99//119
f 31//120 101//120 139//120 90//120
f 31//121 90//121 138//121 98//121
f 31//119 98//119 142//119 101//119
f 32//122 98//122 138//122 93//122
f 32//123 93//123 141//123 99//123
f 32//119 99//119 142//119 98//119
f 33//124 100//124 140//124 91//124
f 33//125 91//125 139//125 101//125
f 33//119 101//119 142//119 100//119
f 34//126 77//126 130//126 78//126
f 34//127 78//127 131//127 102//127
f 34//128 102//128 143//128 106//128
f 34//129 106//129 146//129 77//129
f 35//130 102//130 131//130 79//130
f 35//131 79//131 132//131 103//131
f 35//62 103//62 144//62 107//62
f 35//132 107//132 143//132 102//132
f 36//133 103//133 132//133 80//133
f 36//134 80//134 133//134 104//134
f 36//135 104//135 145//135 108//135
f 36//57 108//57 144//57 103//57
f 37//136 104//136 133//136 81//136
f 37//137 81//137 130//137 77//137
f 37//138 77//138 146//138 109//138
f 37//139 109//139 145//139 104//139
