# Blender v2.76 (sub 0) OBJ File: 'Bridge_v2.blend'
# www.blender.org
mtllib Bridge_Chunk.mtl
o Cube.003_Cube.007
v -0.885583 -0.181330 2.468902
v -0.054411 -0.095800 2.468902
v -5.089109 -0.949609 -4.540299
v -4.592394 -1.452406 -7.857273
v 0.614183 -0.210108 1.975835
v -4.285570 -0.865335 -4.900797
v -0.054411 -0.266860 2.468902
v 1.192347 -0.095800 2.468902
v -4.274242 -1.033882 -4.874406
v -2.297137 -0.665957 -1.509000
v -2.303031 -0.496205 -1.522732
v -3.470703 -0.949609 -5.234903
v -3.118581 -0.581081 -1.329103
v 1.607932 -0.181330 2.261189
v 1.607932 -0.266860 2.468902
v -1.046335 -0.210108 2.002725
v -0.216288 -0.124625 1.988786
v -0.215864 -0.295590 1.989774
v -1.481587 -0.581081 -1.702628
v 1.607932 -0.266860 3.618079
v 1.192347 -0.095800 3.618079
v -0.054411 -0.266860 3.618079
v -0.054411 -0.095800 3.618079
v -0.885583 -0.181330 3.618079
v -6.468920 -1.928871 -9.992506
v -6.213912 -1.452406 -7.161333
v -5.397296 -1.536636 -7.495656
v -5.409011 -1.368175 -7.522951
v 1.607932 -0.095800 3.618079
v 1.192347 -0.266860 3.618079
v 1.192347 -0.266860 2.468902
v 1.192347 -0.181330 2.261189
v 1.607932 -0.095800 2.468902
v 1.192347 -0.266860 4.559543
v 1.607932 -0.095800 4.559543
v -0.885583 -0.181330 4.559543
v -0.054411 -0.095800 4.559543
v -0.054411 -0.266860 4.559543
v 1.192347 -0.095800 4.559543
v 1.607932 -0.266860 4.559543
v -0.677790 -0.117182 2.468902
v -0.925771 -0.188524 2.248502
v 1.192347 -0.245477 2.313118
v -0.677790 -0.245477 4.559543
v -0.054411 -0.095800 4.559543
v -0.885583 -0.181330 4.559543
v -5.399828 -1.088474 -5.264473
v -4.595267 -1.004233 -5.625813
v -3.779088 -1.088474 -5.960080
v -4.583649 -1.172715 -5.598742
v 0.406459 -0.145996 1.978826
v 0.840013 -0.188524 2.189851
v -3.668756 -1.012814 -5.138183
v -4.891056 -0.886403 -4.637022
v 0.672864 -0.266860 4.559543
v 1.192347 -0.095800 4.559543
v -0.054411 -0.266860 4.559543
v -0.094774 -0.274042 2.245264
v 0.672864 -0.095800 4.559543
v -0.094880 -0.103006 2.245017
v -0.838611 -0.274220 1.999735
v -3.677251 -0.886403 -5.157975
v -1.684001 -0.644738 -1.650788
v -2.916167 -0.517424 -1.380944
v -4.882560 -1.012814 -4.617229
v -3.751323 -0.928756 -3.964031
v -3.761098 -0.759865 -3.986805
v -2.945462 -0.844311 -4.282250
v -4.566958 -0.844311 -3.668585
v 1.607932 -0.266860 4.559543
v 1.607932 -0.117182 2.313118
v 1.607932 -0.181330 2.261189
v 1.607932 -0.095800 4.559543
v 1.607932 -0.266860 4.559543
v -1.688421 -0.517424 -1.661088
v -2.911746 -0.644738 -1.370645
v 0.406777 -0.274220 1.979567
v -0.838930 -0.145996 1.998993
v -1.644773 -0.317240 1.040536
v -0.818913 -0.231933 0.974705
v -0.816909 -0.402548 0.979373
v 0.008952 -0.317240 0.913543
v -0.677790 -0.117182 3.618079
v -0.677790 -0.245477 2.468902
v 0.672864 -0.266860 2.468902
v 0.672864 -0.095800 2.468902
v 1.607932 -0.095800 2.468902
v 1.607932 -0.266860 2.468902
v 1.607932 -0.266860 2.860053
v 1.192347 -0.095800 2.860053
v -0.054411 -0.266860 2.860053
v -0.054411 -0.095800 2.860053
v -0.885583 -0.181330 2.860053
v -6.810548 -1.809755 -9.110726
v -6.206872 -1.746582 -9.381941
v -5.594409 -1.809755 -9.632683
v -6.198085 -1.872928 -9.361469
v -4.790691 -1.515579 -7.760045
v -4.799477 -1.389233 -7.780518
v -6.015616 -1.389233 -7.258561
v -6.006830 -1.515579 -7.238090
v 1.607932 -0.245477 2.313118
v 1.607932 -0.095800 4.559543
v 1.192347 -0.266860 4.559543
v 1.192347 -0.117182 2.313118
v 1.192347 -0.266860 2.860053
v 1.607932 -0.095800 2.860053
v 1.504036 -0.095800 4.559543
v 1.504036 -0.266860 4.559543
v 1.504036 -0.266860 2.468902
v 1.504036 -0.181330 2.261189
v 1.504036 -0.095800 2.468902
v -0.677790 -0.245477 3.618079
v 0.672864 -0.266860 3.618079
v 0.672864 -0.095800 3.618079
v 1.607932 -0.095800 3.618079
v 1.607932 -0.266860 3.618079
v -0.677790 -0.117182 4.559543
v 1.504036 -0.095800 3.618079
v 1.504036 -0.266860 3.618079
v 1.192347 -0.266860 4.324177
v 1.607932 -0.095800 4.324177
v -0.885583 -0.181330 4.324177
v -0.054411 -0.095800 4.324177
v -0.054411 -0.266860 4.324177
v 1.192347 -0.095800 4.324177
v 1.607932 -0.266860 4.324177
v -0.717995 -0.252663 2.247754
v -0.718075 -0.124386 2.247569
v -0.677790 -0.117182 4.559543
v -0.677790 -0.245477 4.559543
v -5.192879 -1.151655 -5.341273
v -5.201593 -1.025293 -5.361575
v 0.684317 -0.257774 2.249364
v 0.684266 -0.114095 2.249245
v -3.977324 -1.151655 -5.862978
v -3.986038 -1.025293 -5.883281
v 0.672864 -0.095800 4.559543
v 0.672864 -0.266860 4.559543
v -3.151814 -0.780976 -4.214084
v -3.144483 -0.907645 -4.197002
v -4.367938 -0.780976 -3.753834
v -4.360606 -0.907645 -3.736753
v 1.607932 -0.245477 2.313118
v 1.607932 -0.095800 4.559543
v 1.607932 -0.266860 4.559543
v 1.607932 -0.117182 2.313118
v -0.198515 -0.253259 0.927666
v -1.437306 -0.381221 1.026412
v -0.197013 -0.381221 0.931167
v -1.438809 -0.253259 1.022911
v -0.677790 -0.117182 2.860053
v -0.677790 -0.245477 2.860053
v 0.672864 -0.266860 2.860053
v 0.672864 -0.095800 2.860053
v 1.607932 -0.095800 2.860053
v 1.607932 -0.266860 2.860053
v -6.442414 -1.763903 -8.687963
v -6.448923 -1.670314 -8.703126
v -5.541570 -1.763903 -9.074595
v -5.548079 -1.670314 -9.089759
v 1.504036 -0.245477 2.313118
v 1.504036 -0.095800 4.559543
v 1.504036 -0.266860 4.559543
v 1.504036 -0.117182 2.313118
v 1.504036 -0.266860 2.860053
v 1.504036 -0.095800 2.860053
v -0.677790 -0.245477 4.324177
v 0.672864 -0.266860 4.324177
v 0.672864 -0.095800 4.324177
v 1.607932 -0.095800 4.324177
v 1.607932 -0.266860 4.324177
v -0.677790 -0.117182 4.324177
v 1.504036 -0.095800 4.324177
v 1.504036 -0.266860 4.324177
vn -0.295000 0.955500 0.000000
vn -0.294900 0.955300 0.022600
vn -0.293800 -0.952100 0.084500
vn -0.295000 -0.955500 0.000000
vn 0.000000 1.000000 0.000000
vn 0.007500 0.998300 -0.057900
vn -0.034300 0.999100 -0.026100
vn -0.034300 0.999400 0.000000
vn -0.281300 0.958200 0.052500
vn -0.322600 0.945600 -0.043000
vn -0.191100 -0.945600 0.263300
vn -0.207400 -0.949000 0.237500
vn 0.191000 0.945600 -0.263300
vn 0.322500 -0.945600 0.043200
vn 0.271100 -0.961900 0.034800
vn 0.138100 0.951400 -0.275300
vn 0.275800 0.927600 -0.252000
vn 0.271700 0.884100 -0.380100
vn 0.298200 -0.924500 -0.237600
vn 0.291900 -0.953800 -0.070500
vn -0.008500 0.994100 -0.108000
vn -0.038700 0.984300 -0.172000
vn -0.098100 0.984300 -0.146600
vn -0.066500 0.994700 -0.077900
vn -0.034300 -0.999400 0.000000
vn -0.034200 -0.998700 0.038500
vn 0.010800 -0.999900 -0.005000
vn 0.000000 -1.000000 0.000000
vn 0.000000 0.990700 -0.136000
vn 0.009500 0.994400 -0.104800
vn 0.009700 -0.993800 0.111000
vn 0.038700 -0.984300 0.172100
vn 0.098200 -0.984300 0.146700
vn 0.065700 -0.995000 0.075800
vn -0.016600 -0.993000 0.117200
vn -0.001700 -0.994000 0.109400
vn 0.056600 -0.995800 0.071700
vn 0.046200 -0.996000 0.076500
vn 0.017200 0.993400 -0.113300
vn 0.002700 0.994400 -0.106100
vn -0.057300 0.995600 -0.074100
vn -0.046600 0.995800 -0.079200
vn 0.191500 0.945700 -0.262600
vn 0.212900 0.951100 -0.223600
vn 0.282400 -0.958000 -0.050000
vn 0.322900 -0.945400 0.043700
vn -0.286500 0.955400 0.071400
vn -0.280500 0.957600 0.065600
vn -0.225100 -0.943300 0.244100
vn -0.252400 -0.932300 0.259200
vn 0.000000 0.629200 -0.777200
vn 0.000000 0.000000 1.000000
vn 0.000000 -0.629200 -0.777200
vn 0.000000 -0.990700 -0.136000
vn -0.294000 0.953900 0.060300
vn -0.291600 0.953600 0.074800
vn -0.273500 -0.922800 0.271300
vn -0.285800 -0.932400 0.221100
vn 0.022500 0.992800 -0.117900
vn 0.028600 0.992400 -0.119800
vn -0.038200 0.995700 -0.084300
vn -0.034900 0.997000 -0.068600
vn -0.033100 -0.994300 0.101000
vn -0.028400 -0.991900 0.124100
vn 0.038000 -0.996000 0.081200
vn 0.027000 -0.998300 0.051700
vn 0.230100 0.946000 -0.228300
vn 0.255900 0.936000 -0.241500
vn 0.287200 -0.955500 -0.067500
vn 0.281600 -0.957500 -0.062400
vn -0.186400 0.963900 -0.190400
vn -0.009600 0.963900 -0.266300
vn 0.126300 -0.990700 0.050400
vn -0.050500 -0.990700 0.126300
vn -0.190900 -0.945600 0.263400
vn -0.322400 0.945600 -0.043100
vn -0.294600 0.951400 -0.089600
vn -0.161600 -0.961900 0.220500
vn 0.098100 -0.984300 0.146700
vn 0.038800 -0.984300 0.172200
vn 0.028000 -0.986200 0.163400
vn 0.099200 -0.986200 0.132900
vn -0.098100 0.984300 -0.146700
vn -0.038800 0.984300 -0.172200
vn -0.037700 0.981800 -0.186000
vn -0.108900 0.981800 -0.155400
vn 0.016900 -0.996600 -0.080400
vn 0.108600 0.693900 -0.711900
vn 0.123900 -0.717400 -0.685600
usemtl None
s off
f 1//1 93//1 152//1 41//1
f 1//2 41//2 129//2 42//2
f 1//3 42//3 128//3 84//3
f 1//4 84//4 153//4 93//4
f 2//5 92//5 155//5 86//5
f 2//6 86//6 135//6 60//6
f 2//7 60//7 129//7 41//7
f 2//8 41//8 152//8 92//8
f 3//9 69//9 142//9 54//9
f 3//10 54//10 133//10 47//10
f 3//11 47//11 132//11 65//11
f 3//12 65//12 143//12 69//12
f 4//13 99//13 137//13 49//13
f 4//14 49//14 136//14 98//14
f 4//15 98//15 160//15 96//15
f 4//16 96//16 161//16 99//16
f 5//17 82//17 148//17 51//17
f 5//18 51//18 135//18 52//18
f 5//19 52//19 134//19 77//19
f 5//20 77//20 150//20 82//20
f 6//21 67//21 140//21 62//21
f 6//22 62//22 137//22 48//22
f 6//23 48//23 133//23 54//23
f 6//24 54//24 142//24 67//24
f 7//25 91//25 153//25 84//25
f 7//26 84//26 128//26 58//26
f 7//27 58//27 134//27 85//27
f 7//28 85//28 154//28 91//28
f 8//5 90//5 167//5 112//5
f 8//29 112//29 165//29 105//29
f 8//30 105//30 135//30 86//30
f 8//5 86//5 155//5 90//5
f 9//31 66//31 143//31 65//31
f 9//32 65//32 132//32 50//32
f 9//33 50//33 136//33 53//33
f 9//34 53//34 141//34 66//34
f 10//35 81//35 149//35 76//35
f 10//36 76//36 143//36 66//36
f 10//37 66//37 141//37 63//37
f 10//38 63//38 150//38 81//38
f 11//39 80//39 148//39 75//39
f 11//40 75//40 140//40 67//40
f 11//41 67//41 142//41 64//41
f 11//42 64//42 151//42 80//42
f 12//43 49//43 137//43 62//43
f 12//44 62//44 140//44 68//44
f 12//45 68//45 141//45 53//45
f 12//46 53//46 136//46 49//46
f 13//47 79//47 151//47 64//47
f 13//48 64//48 142//48 69//48
f 13//49 69//49 143//49 76//49
f 13//50 76//50 149//50 79//50
f 14//51 111//51 165//51 71//51
f 14//52 71//52 147//52 72//52
f 14//52 72//52 144//52 102//52
f 14//53 102//53 162//53 111//53
f 15//28 89//28 166//28 110//28
f 15//54 110//54 162//54 102//54
f 15//52 102//52 144//52 88//52
f 15//52 88//52 157//52 89//52
f 16//55 42//55 129//55 78//55
f 16//56 78//56 151//56 79//56
f 16//57 79//57 149//57 61//57
f 16//58 61//58 128//58 42//58
f 17//59 60//59 135//59 51//59
f 17//60 51//60 148//60 80//60
f 17//61 80//61 151//61 78//61
f 17//62 78//62 129//62 60//62
f 18//63 58//63 128//63 61//63
f 18//64 61//64 149//64 81//64
f 18//65 81//65 150//65 77//65
f 18//66 77//66 134//66 58//66
f 19//67 68//67 140//67 75//67
f 19//68 75//68 148//68 82//68
f 19//69 82//69 150//69 63//69
f 19//70 63//70 141//70 68//70
f 20//28 127//28 175//28 120//28
f 20//28 120//28 166//28 89//28
f 20//52 89//52 157//52 117//52
f 20//52 117//52 172//52 127//52
f 21//5 126//5 174//5 119//5
f 21//5 119//5 167//5 90//5
f 21//5 90//5 155//5 115//5
f 21//5 115//5 170//5 126//5
f 22//25 125//25 168//25 113//25
f 22//25 113//25 153//25 91//25
f 22//28 91//28 154//28 114//28
f 22//28 114//28 169//28 125//28
f 23//5 124//5 170//5 115//5
f 23//5 115//5 155//5 92//5
f 23//8 92//8 152//8 83//8
f 23//8 83//8 173//8 124//8
f 24//1 123//1 173//1 83//1
f 24//1 83//1 152//1 93//1
f 24//4 93//4 153//4 113//4
f 24//4 113//4 168//4 123//4
f 25//71 94//71 159//71 95//71
f 25//72 95//72 161//72 96//72
f 25//73 96//73 160//73 97//73
f 25//74 97//74 158//74 94//74
f 26//75 101//75 132//75 47//75
f 26//76 47//76 133//76 100//76
f 26//77 100//77 159//77 94//77
f 26//78 94//78 158//78 101//78
f 27//79 98//79 136//79 50//79
f 27//80 50//80 132//80 101//80
f 27//81 101//81 158//81 97//81
f 27//82 97//82 160//82 98//82
f 28//83 100//83 133//83 48//83
f 28//84 48//84 137//84 99//84
f 28//85 99//85 161//85 95//85
f 28//86 95//86 159//86 100//86
f 29//52 122//52 171//52 116//52
f 29//52 116//52 156//52 107//52
f 29//5 107//5 167//5 119//5
f 29//5 119//5 174//5 122//5
f 30//28 121//28 169//28 114//28
f 30//28 114//28 154//28 106//28
f 30//28 106//28 166//28 120//28
f 30//28 120//28 175//28 121//28
f 31//28 106//28 154//28 85//28
f 31//87 85//87 134//87 43//87
f 31//54 43//54 162//54 110//54
f 31//28 110//28 166//28 106//28
f 32//88 52//88 135//88 105//88
f 32//51 105//51 165//51 111//51
f 32//53 111//53 162//53 43//53
f 32//89 43//89 134//89 52//89
f 33//52 107//52 156//52 87//52
f 33//52 87//52 147//52 71//52
f 33//29 71//29 165//29 112//29
f 33//5 112//5 167//5 107//5
f 34//52 104//52 139//52 55//52
f 34//28 55//28 169//28 121//28
f 34//28 121//28 175//28 109//28
f 34//52 109//52 164//52 104//52
f 35//52 103//52 145//52 73//52
f 35//52 73//52 171//52 122//52
f 35//5 122//5 174//5 108//5
f 35//52 108//52 163//52 103//52
f 36//52 46//52 130//52 118//52
f 36//1 118//1 173//1 123//1
f 36//4 123//4 168//4 44//4
f 36//52 44//52 131//52 46//52
f 37//52 45//52 138//52 59//52
f 37//5 59//5 170//5 124//5
f 37//8 124//8 173//8 118//8
f 37//52 118//52 130//52 45//52
f 38//52 57//52 131//52 44//52
f 38//25 44//25 168//25 125//25
f 38//28 125//28 169//28 55//28
f 38//52 55//52 139//52 57//52
f 39//52 56//52 163//52 108//52
f 39//5 108//5 174//5 126//5
f 39//5 126//5 170//5 59//5
f 39//52 59//52 138//52 56//52
f 40//52 70//52 164//52 109//52
f 40//28 109//28 175//28 127//28
f 40//52 127//52 172//52 74//52
f 40//52 74//52 146//52 70//52
