# Blender v2.76 (sub 0) OBJ File: 'Bridge_v2.blend'
# www.blender.org
mtllib Bridge_Chunk_v3.mtl
o Cube.003_Cube.007
v -0.885583 -0.181330 2.468902
v -0.660231 -0.095800 2.468902
v -5.089109 -0.949609 -4.540299
v -4.592394 -1.452406 -7.857273
v 0.614183 -0.210108 1.975835
v -4.892472 -0.865335 -4.640321
v 0.361175 -0.266860 2.468902
v 1.192347 -0.095800 2.468903
v -3.869641 -1.033882 -5.048057
v -1.887889 -0.665957 -1.602381
v -2.916903 -0.496205 -1.382660
v -3.470703 -0.949609 -5.234903
v -3.118581 -0.581081 -1.329103
v 1.607932 -0.181330 2.261189
v 1.607932 -0.266860 2.468902
v -1.046335 -0.210108 2.002725
v -0.830203 -0.124625 1.998870
v 0.199265 -0.295590 1.983052
v -1.481587 -0.581081 -1.702628
v 1.607932 -0.266860 3.618079
v 1.192347 -0.095800 3.618079
v 0.361175 -0.266860 3.618079
v -0.660231 -0.095800 3.618079
v -0.885583 -0.181330 3.618079
v -6.063540 -1.928871 -10.166491
v -6.213912 -1.452406 -7.161333
v -6.005365 -1.536636 -7.234678
v -5.003632 -1.368175 -7.696937
v 1.607932 -0.095800 3.618079
v 1.192347 -0.266860 3.618079
v 1.192347 -0.266860 2.468902
v 1.192347 -0.181330 2.261189
v 1.607932 -0.095800 2.468902
v 1.192347 -0.266860 4.559543
v 1.607932 -0.095800 4.559543
v -0.885583 -0.181330 4.559543
v -0.660231 -0.095800 4.559543
v 0.361175 -0.266860 4.559543
v 1.192347 -0.095800 4.559543
v 1.607932 -0.266860 4.559543
v -0.244645 -0.266860 4.559543
v 0.361175 -0.095800 4.559543
v -5.611701 -1.368175 -7.435959
v -4.991916 -1.536636 -7.669641
v -6.671610 -1.928871 -9.905514
v 0.361175 -0.095800 3.618079
v -0.244645 -0.266860 3.618079
v -0.414650 -0.295590 1.993136
v 0.198841 -0.124625 1.982063
v -1.893782 -0.496205 -1.616113
v -2.501761 -0.665957 -1.462308
v -4.476544 -1.033882 -4.787580
v -0.244645 -0.266860 2.468902
v -3.880969 -0.865335 -5.074449
v 0.361175 -0.095800 2.468903
v -0.660231 -0.266860 2.468902
v -4.881145 -1.033882 -4.613930
v -2.911009 -0.665957 -1.368928
v -0.829779 -0.295590 1.999858
v -0.660231 -0.266860 3.618079
v -7.076990 -1.928871 -9.731527
v -6.017081 -1.368175 -7.261973
v -0.660231 -0.266860 4.559543
v -0.244645 -0.095800 4.559543
v -5.599986 -1.536636 -7.408664
v -0.244645 -0.095800 3.618079
v -0.415074 -0.124625 1.992147
v -2.507655 -0.496205 -1.476041
v -4.487871 -0.865335 -4.813972
v -0.244645 -0.095800 2.468902
v -0.829245 -0.117182 2.468902
v -0.925771 -0.188524 2.248502
v 1.192347 -0.245477 2.313118
v -0.829245 -0.245477 4.559543
v -0.660231 -0.095800 4.559543
v -0.885583 -0.181330 4.559543
v -5.399828 -1.088474 -5.264473
v -4.190083 -1.004233 -5.799714
v -3.779088 -1.088474 -5.960080
v -5.191428 -1.172715 -5.337890
v 0.510241 -0.145996 1.977145
v 0.840013 -0.188524 2.189851
v -3.567606 -1.012814 -5.181595
v -5.042782 -0.886403 -4.571903
v 0.776761 -0.266860 4.559543
v 1.192347 -0.095800 4.559543
v 0.361175 -0.266860 4.559543
v -0.702618 -0.274042 2.247785
v 0.776761 -0.095800 4.559543
v 0.320592 -0.103006 2.243336
v -0.992090 -0.274220 2.002255
v -3.576101 -0.886403 -5.201387
v -1.581689 -0.644738 -1.674133
v -3.069635 -0.517424 -1.345926
v -5.034286 -1.012814 -4.552109
v -3.345949 -0.928756 -4.117447
v -4.369159 -0.759865 -3.756680
v -2.945462 -0.844311 -4.282250
v -4.566958 -0.844311 -3.668585
v 1.607932 -0.266860 4.559543
v 1.607932 -0.117182 2.313118
v 1.607932 -0.181330 2.261189
v 1.607932 -0.095800 4.559543
v 1.607932 -0.266860 4.559543
v -1.586109 -0.517424 -1.684433
v -3.065214 -0.644738 -1.335627
v 0.510560 -0.274220 1.977886
v -0.992409 -0.145996 2.001514
v -1.644773 -0.317240 1.040536
v -1.436865 -0.231933 1.022327
v -0.403478 -0.402548 0.947625
v 0.008952 -0.317240 0.913543
v -0.829245 -0.117182 3.618079
v -0.829245 -0.245477 2.468902
v 0.776761 -0.266860 2.468902
v 0.776761 -0.095800 2.468903
v 1.607932 -0.095800 2.468902
v 1.607932 -0.266860 2.468902
v 1.607932 -0.266860 2.860053
v 1.192347 -0.095800 2.860054
v 0.361175 -0.266860 2.860053
v -0.660231 -0.095800 2.860053
v -0.885583 -0.181330 2.860053
v -6.962565 -1.809755 -9.045482
v -5.801492 -1.746582 -9.555926
v -5.493064 -1.809755 -9.676179
v -6.806155 -1.872928 -9.100491
v -4.689346 -1.515579 -7.803542
v -4.698132 -1.389233 -7.824013
v -6.167633 -1.389233 -7.193316
v -6.158848 -1.515579 -7.172846
v 1.607932 -0.245477 2.313118
v 1.607932 -0.095800 4.559543
v 1.192347 -0.266860 4.559543
v 1.192347 -0.117182 2.313118
v 1.192347 -0.266860 2.860053
v 1.607932 -0.095800 2.860053
v 1.504036 -0.095800 4.559543
v 1.504036 -0.266860 4.559543
v 1.504036 -0.266860 2.468902
v 1.504036 -0.181330 2.261189
v 1.504036 -0.095800 2.468903
v -0.829245 -0.245477 3.618079
v 0.776761 -0.266860 3.618079
v 0.776761 -0.095800 3.618080
v 1.607932 -0.095800 3.618079
v 1.607932 -0.266860 3.618079
v -0.829245 -0.117182 4.559543
v 1.504036 -0.095800 3.618079
v 1.504036 -0.266860 3.618079
v 1.192347 -0.266860 4.324177
v 1.607932 -0.095800 4.324177
v -0.885583 -0.181330 4.324177
v -0.660231 -0.095800 4.324177
v 0.361175 -0.266860 4.324177
v 1.192347 -0.095800 4.324177
v 1.607932 -0.266860 4.324177
v 0.361175 -0.095800 4.559543
v -4.797860 -1.004233 -5.538861
v -4.178464 -1.172715 -5.772644
v -0.244645 -0.266860 4.559543
v 0.320698 -0.274042 2.243583
v -0.287252 -0.103006 2.245857
v -3.954010 -0.928756 -3.887322
v -3.355723 -0.759865 -4.140222
v -0.405482 -0.231933 0.942956
v -1.021430 -0.402548 0.995248
v -0.244645 -0.266860 2.860053
v 0.361175 -0.095800 2.860054
v -6.409562 -1.746582 -9.294949
v -5.792706 -1.872928 -9.535455
v 0.361175 -0.095800 4.324177
v -0.244645 -0.266860 4.324177
v 0.001927 -0.266860 4.559543
v 0.001927 -0.095800 4.559543
v -5.358338 -1.368175 -7.544701
v -5.346623 -1.536636 -7.517404
v -6.418248 -1.928871 -10.014254
v 0.001927 -0.095800 3.618079
v 0.001927 -0.266860 3.618079
v -0.161778 -0.295590 1.988934
v -0.162202 -0.124625 1.987946
v -2.251875 -0.496205 -1.534404
v -2.245981 -0.665957 -1.520672
v -4.223667 -1.033882 -4.896112
v 0.001927 -0.266860 2.468902
v -4.234995 -0.865335 -4.922503
v 0.001927 -0.095800 2.468903
v -0.244645 -0.095800 4.559543
v -4.786242 -1.172715 -5.511791
v -0.287146 -0.274042 2.246104
v -3.963785 -0.759865 -3.910097
v -1.023434 -0.231933 0.990579
v -0.244645 -0.095800 2.860053
v -6.400775 -1.872928 -9.274477
v -0.244645 -0.095800 4.324177
v -5.203045 -1.004233 -5.364959
v -0.660231 -0.266860 4.559543
v -0.702724 -0.103006 2.247538
v -4.359385 -0.928756 -3.733906
v -1.434861 -0.402548 1.026996
v -0.660231 -0.266860 2.860053
v -6.814941 -1.746582 -9.120963
v -0.660231 -0.266860 4.324177
v -0.443659 -0.266860 2.468902
v -4.678844 -1.033882 -4.700755
v -2.706385 -0.665957 -1.415618
v -0.617825 -0.295590 1.996497
v -0.443659 -0.266860 3.618079
v -6.874300 -1.928871 -9.818520
v -5.814391 -1.368175 -7.348967
v -0.443659 -0.266860 4.559543
v -0.443659 -0.095800 4.559543
v -5.802676 -1.536636 -7.321671
v -0.443659 -0.095800 3.618079
v -0.618249 -0.124625 1.995508
v -2.712279 -0.496205 -1.429350
v -4.690172 -0.865335 -4.727147
v -0.443659 -0.095800 2.468902
v -0.869956 -0.252663 2.248384
v -0.870036 -0.124386 2.248199
v -0.829245 -0.117182 4.559543
v -0.829245 -0.245477 4.559543
v -5.344823 -1.151655 -5.276060
v -5.353537 -1.025293 -5.296362
v 0.750792 -0.257774 2.249095
v 0.750741 -0.114095 2.248976
v -3.876028 -1.151655 -5.906454
v -3.884741 -1.025293 -5.926755
v 0.776761 -0.095800 4.559543
v 0.776761 -0.266860 4.559543
v -3.050471 -0.780976 -4.252437
v -3.043140 -0.907645 -4.235356
v -4.519952 -0.780976 -3.696302
v -4.512621 -0.907645 -3.679221
v 1.607932 -0.245477 2.313118
v 1.607932 -0.095800 4.559543
v 1.607932 -0.266860 4.559543
v 1.607932 -0.117182 2.313118
v -0.095158 -0.253259 0.919729
v -1.591794 -0.381221 1.038318
v -0.093655 -0.381221 0.923230
v -1.593297 -0.253259 1.034817
v -0.829245 -0.117182 2.860053
v -0.829245 -0.245477 2.860053
v 0.776761 -0.266860 2.860053
v 0.776761 -0.095800 2.860054
v 1.607932 -0.095800 2.860053
v 1.607932 -0.266860 2.860053
v -6.712667 -1.763903 -8.571972
v -6.719176 -1.670314 -8.587135
v -5.361402 -1.763903 -9.151922
v -5.367909 -1.670314 -9.167087
v 1.504036 -0.245477 2.313118
v 1.504036 -0.095800 4.559543
v 1.504036 -0.266860 4.559543
v 1.504036 -0.117182 2.313118
v 1.504036 -0.266860 2.860053
v 1.504036 -0.095800 2.860053
v -0.829245 -0.245477 4.324177
v 0.776761 -0.266860 4.324177
v 0.776761 -0.095800 4.324177
v 1.607932 -0.095800 4.324177
v 1.607932 -0.266860 4.324177
v -0.829245 -0.117182 4.324177
v 1.504036 -0.095800 4.324177
v 1.504036 -0.266860 4.324177
v 0.001927 -0.095800 4.559543
v -4.544619 -1.004233 -5.647549
v -4.533001 -1.172715 -5.620480
v 0.001927 -0.266860 4.559543
v -0.038999 -0.274042 2.245054
v -0.039105 -0.103006 2.244807
v -3.700651 -0.928756 -3.983208
v -3.710426 -0.759865 -4.005981
v -0.766685 -0.231933 0.970736
v -0.764681 -0.402548 0.975405
v 0.001927 -0.266860 2.860053
v 0.001927 -0.095800 2.860053
v -6.156199 -1.746582 -9.403689
v -6.147413 -1.872928 -9.383217
v 0.001927 -0.095800 4.324177
v 0.001927 -0.266860 4.324177
v -0.443659 -0.095800 4.559543
v -4.988834 -1.172715 -5.424841
v -0.487200 -0.274042 2.246944
v -4.166473 -0.759865 -3.833389
v -1.229051 -0.231933 1.006453
v -0.443659 -0.095800 2.860053
v -6.603465 -1.872928 -9.187486
v -0.443659 -0.095800 4.324177
v -5.000453 -1.004233 -5.451911
v -0.443659 -0.266860 4.559543
v -0.487306 -0.103006 2.246697
v -4.156697 -0.928756 -3.810614
v -1.227048 -0.402548 1.011122
v -0.443659 -0.266860 2.860053
v -6.612252 -1.746582 -9.207956
v -0.443659 -0.266860 4.324177
vn -0.751400 0.659900 0.000000
vn -0.747900 0.653600 0.116000
vn -0.743400 -0.650000 0.157600
vn -0.751400 -0.659900 0.000000
vn 0.000000 1.000000 0.000000
vn -0.000100 0.999500 -0.032500
vn -0.126100 0.992000 -0.008600
vn -0.125500 0.992100 0.000000
vn -0.680300 0.655500 0.327800
vn -0.741800 0.641600 0.195200
vn -0.652600 -0.641700 0.403000
vn -0.633100 -0.626700 0.454400
vn 0.403000 0.851300 -0.336100
vn 0.521400 -0.851200 -0.060200
vn 0.451400 -0.890700 -0.053800
vn 0.328200 0.881000 -0.340900
vn 0.480700 0.801600 -0.355600
vn 0.408400 0.777900 -0.477600
vn 0.447800 -0.815800 -0.366100
vn 0.507900 -0.836500 -0.205500
vn -0.038500 0.994700 -0.095400
vn -0.068400 0.984800 -0.159400
vn -0.185800 0.976700 -0.107600
vn -0.150700 0.988200 -0.028800
vn 0.000000 -1.000000 0.000000
vn 0.000100 -0.999500 0.032000
vn 0.019300 -0.999800 -0.007200
vn 0.000000 0.990700 -0.136000
vn 0.011500 0.994300 -0.105800
vn 0.037300 -0.995000 0.092300
vn 0.068500 -0.984800 0.159500
vn 0.127700 -0.982700 0.133900
vn 0.093800 -0.993800 0.059000
vn 0.014500 -0.995300 0.095400
vn 0.027100 -0.995600 0.089300
vn 0.085900 -0.994900 0.053600
vn 0.077600 -0.995300 0.057100
vn -0.015100 0.994900 -0.099400
vn -0.028100 0.995300 -0.092800
vn -0.144800 0.989200 -0.021400
vn -0.139900 0.989900 -0.022900
vn 0.403800 0.851400 -0.334800
vn 0.414400 0.850800 -0.323300
vn 0.475600 -0.863700 -0.167200
vn 0.522100 -0.850800 -0.059100
vn -0.699000 0.614500 0.365800
vn -0.683900 0.639700 0.350800
vn -0.642800 -0.608100 0.465800
vn -0.659900 -0.582300 0.474800
vn 0.000000 0.629200 -0.777200
vn 0.000000 0.000000 1.000000
vn 0.000000 -0.629200 -0.777200
vn 0.000000 -0.990700 -0.136000
vn -0.722800 0.621600 0.302000
vn -0.706600 0.601600 0.372500
vn -0.668200 -0.569400 0.478900
vn -0.696000 -0.599100 0.395900
vn -0.000800 0.996300 -0.085700
vn -0.004800 0.994400 -0.105600
vn -0.134000 0.990600 -0.026100
vn -0.128800 0.991400 -0.021500
vn 0.000800 -0.996600 0.082700
vn 0.004700 -0.994900 0.101100
vn 0.071300 -0.995600 0.060700
vn 0.050700 -0.998000 0.036900
vn 0.432200 0.838600 -0.331700
vn 0.460000 0.817900 -0.345500
vn 0.495400 -0.845900 -0.197500
vn 0.479900 -0.857500 -0.185300
vn -0.104400 0.964400 -0.243100
vn 0.077700 0.950700 -0.300100
vn 0.211800 -0.977200 0.012300
vn 0.032000 -0.996700 0.074600
vn -0.652300 -0.641900 0.403100
vn -0.741500 0.641900 0.195100
vn -0.697300 0.703000 0.139700
vn -0.599000 -0.710800 0.368700
vn 0.068500 -0.984800 0.159600
vn -0.049900 -0.976700 0.208800
vn -0.078000 -0.975200 0.207000
vn 0.064400 -0.986600 0.150200
vn -0.068500 0.984800 -0.159600
vn -0.009000 0.982800 -0.184600
vn -0.002100 0.979600 -0.200800
vn -0.072500 0.983000 -0.169000
vn 0.020400 -0.996400 -0.082200
vn 0.121900 0.667300 -0.734700
vn 0.138500 -0.687100 -0.713300
vn 0.127600 -0.982800 0.133800
vn 0.134500 -0.983900 0.117300
vn -0.104300 0.964400 -0.243100
vn 0.000900 -0.996400 0.084800
vn 0.004900 -0.994500 0.104300
vn 0.004900 -0.994700 0.102900
vn 0.000900 -0.996500 0.083900
vn 0.043500 0.990700 -0.129000
vn 0.061700 0.988700 -0.136800
vn -0.004700 0.994900 -0.101100
vn -0.000800 0.996600 -0.082800
vn 0.049000 0.990400 -0.129600
vn 0.032700 0.992000 -0.121500
vn -0.027000 0.995600 -0.089300
vn -0.014500 0.995300 -0.095400
vn 0.015000 -0.995000 0.098200
vn 0.027800 -0.995400 0.091800
vn 0.027500 -0.995500 0.090700
vn 0.014800 -0.995200 0.097000
vn 0.038200 -0.994800 0.094500
vn 0.037800 -0.994900 0.093600
vn 0.000100 -0.999500 0.032300
vn 0.000100 -0.999500 0.032100
vn 0.020500 0.992200 -0.122600
vn -0.008900 0.982800 -0.184400
vn -0.037300 0.995000 -0.092300
vn 0.013500 0.998200 -0.059200
vn -0.000100 0.999500 -0.032000
vn -0.125500 -0.992100 0.000000
vn -0.125800 -0.990500 0.055900
vn 0.000100 -0.999500 0.032400
vn -0.073900 -0.984000 0.162000
vn -0.050000 -0.976700 0.208800
vn 0.038500 -0.994700 0.095400
vn -0.108700 -0.978500 0.175300
vn -0.088300 -0.982500 0.164000
vn 0.028100 -0.995300 0.092800
vn 0.015100 -0.994900 0.099400
vn -0.125800 -0.980800 0.149100
vn -0.122500 -0.975300 0.184000
vn 0.004800 -0.994400 0.105600
vn 0.000800 -0.996300 0.085700
vn -0.423200 0.903200 -0.071700
vn -0.295800 -0.928400 0.225000
vn -0.185700 0.976700 -0.107700
vn -0.213300 0.971000 -0.108400
vn -0.000900 0.996500 -0.084000
vn -0.004900 0.994700 -0.102800
vn -0.004900 0.994500 -0.104200
vn -0.000900 0.996400 -0.084900
vn -0.014800 0.995200 -0.097000
vn -0.027500 0.995500 -0.090700
vn -0.027800 0.995400 -0.091800
vn -0.015000 0.995100 -0.098200
vn -0.037800 0.994900 -0.093500
vn -0.038200 0.994800 -0.094500
vn -0.000100 0.999500 -0.032200
vn -0.000100 0.999500 -0.032300
usemtl None
s off
f 1//1 123//1 244//1 71//1
f 1//2 71//2 221//2 72//2
f 1//3 72//3 220//3 114//3
f 1//4 114//4 245//4 123//4
f 2//5 122//5 289//5 219//5
f 2//6 219//6 294//6 199//6
f 2//7 199//7 221//7 71//7
f 2//8 71//8 244//8 122//8
f 3//9 99//9 234//9 84//9
f 3//10 84//10 225//10 77//10
f 3//11 77//11 224//11 95//11
f 3//12 95//12 235//12 99//12
f 4//13 129//13 229//13 79//13
f 4//14 79//14 228//14 128//14
f 4//15 128//15 252//15 126//15
f 4//16 126//16 253//16 129//16
f 5//17 112//17 240//17 81//17
f 5//18 81//18 227//18 82//18
f 5//19 82//19 226//19 107//19
f 5//20 107//20 242//20 112//20
f 6//21 97//21 287//21 218//21
f 6//22 218//22 292//22 197//22
f 6//23 197//23 225//23 84//23
f 6//24 84//24 234//24 97//24
f 7//25 121//25 278//25 186//25
f 7//26 186//26 272//26 162//26
f 7//27 162//27 226//27 115//27
f 7//25 115//25 246//25 121//25
f 8//5 120//5 259//5 142//5
f 8//28 142//28 257//28 135//28
f 8//29 135//29 227//29 116//29
f 8//5 116//5 247//5 120//5
f 9//30 96//30 274//30 185//30
f 9//31 185//31 270//31 160//31
f 9//32 160//32 228//32 83//32
f 9//33 83//33 233//33 96//33
f 10//34 111//34 277//34 184//34
f 10//35 184//35 274//35 96//35
f 10//36 96//36 233//36 93//36
f 10//37 93//37 242//37 111//37
f 11//38 110//38 288//38 217//38
f 11//39 217//39 287//39 97//39
f 11//40 97//40 234//40 94//40
f 11//41 94//41 243//41 110//41
f 12//42 79//42 229//42 92//42
f 12//43 92//43 232//43 98//43
f 12//44 98//44 233//44 83//44
f 12//45 83//45 228//45 79//45
f 13//46 109//46 243//46 94//46
f 13//47 94//47 234//47 99//47
f 13//48 99//48 235//48 106//48
f 13//49 106//49 241//49 109//49
f 14//50 141//50 257//50 101//50
f 14//51 101//51 239//51 102//51
f 14//51 102//51 236//51 132//51
f 14//52 132//52 254//52 141//52
f 15//25 119//25 258//25 140//25
f 15//53 140//53 254//53 132//53
f 15//51 132//51 236//51 118//51
f 15//51 118//51 249//51 119//51
f 16//54 72//54 221//54 108//54
f 16//55 108//55 243//55 109//55
f 16//56 109//56 241//56 91//56
f 16//57 91//57 220//57 72//57
f 17//58 199//58 294//58 216//58
f 17//59 216//59 288//59 110//59
f 17//60 110//60 243//60 108//60
f 17//61 108//61 221//61 199//61
f 18//62 162//62 272//62 181//62
f 18//63 181//63 277//63 111//63
f 18//64 111//64 242//64 107//64
f 18//65 107//65 226//65 162//65
f 19//66 98//66 232//66 105//66
f 19//67 105//67 240//67 112//67
f 19//68 112//68 242//68 93//68
f 19//69 93//69 233//69 98//69
f 20//25 157//25 267//25 150//25
f 20//25 150//25 258//25 119//25
f 20//51 119//51 249//51 147//51
f 20//51 147//51 264//51 157//51
f 21//5 156//5 266//5 149//5
f 21//5 149//5 259//5 120//5
f 21//5 120//5 247//5 145//5
f 21//5 145//5 262//5 156//5
f 22//25 155//25 283//25 180//25
f 22//25 180//25 278//25 121//25
f 22//25 121//25 246//25 144//25
f 22//25 144//25 261//25 155//25
f 23//5 154//5 291//5 215//5
f 23//5 215//5 289//5 122//5
f 23//8 122//8 244//8 113//8
f 23//8 113//8 265//8 154//8
f 24//1 153//1 265//1 113//1
f 24//1 113//1 244//1 123//1
f 24//4 123//4 245//4 143//4
f 24//4 143//4 260//4 153//4
f 25//70 178//70 280//70 125//70
f 25//71 125//71 253//71 126//71
f 25//72 126//72 252//72 171//72
f 25//73 171//73 281//73 178//73
f 26//74 131//74 224//74 77//74
f 26//75 77//75 225//75 130//75
f 26//76 130//76 251//76 124//76
f 26//77 124//77 250//77 131//77
f 27//78 214//78 285//78 80//78
f 27//79 80//79 224//79 131//79
f 27//80 131//80 250//80 127//80
f 27//81 127//81 290//81 214//81
f 28//82 176//82 269//82 78//82
f 28//83 78//83 229//83 129//83
f 28//84 129//84 253//84 125//84
f 28//85 125//85 280//85 176//85
f 29//51 152//51 263//51 146//51
f 29//51 146//51 248//51 137//51
f 29//5 137//5 259//5 149//5
f 29//5 149//5 266//5 152//5
f 30//25 151//25 261//25 144//25
f 30//25 144//25 246//25 136//25
f 30//25 136//25 258//25 150//25
f 30//25 150//25 267//25 151//25
f 31//25 136//25 246//25 115//25
f 31//86 115//86 226//86 73//86
f 31//53 73//53 254//53 140//53
f 31//25 140//25 258//25 136//25
f 32//87 82//87 227//87 135//87
f 32//50 135//50 257//50 141//50
f 32//52 141//52 254//52 73//52
f 32//88 73//88 226//88 82//88
f 33//51 137//51 248//51 117//51
f 33//51 117//51 239//51 101//51
f 33//28 101//28 257//28 142//28
f 33//5 142//5 259//5 137//5
f 34//51 134//51 231//51 85//51
f 34//25 85//25 261//25 151//25
f 34//25 151//25 267//25 139//25
f 34//51 139//51 256//51 134//51
f 35//51 133//51 237//51 103//51
f 35//51 103//51 263//51 152//51
f 35//5 152//5 266//5 138//5
f 35//51 138//51 255//51 133//51
f 36//51 76//51 222//51 148//51
f 36//1 148//1 265//1 153//1
f 36//4 153//4 260//4 74//4
f 36//51 74//51 223//51 76//51
f 37//51 75//51 284//51 213//51
f 37//5 213//5 291//5 154//5
f 37//8 154//8 265//8 148//8
f 37//51 148//51 222//51 75//51
f 38//51 87//51 271//51 174//51
f 38//25 174//25 283//25 155//25
f 38//25 155//25 261//25 85//25
f 38//51 85//51 231//51 87//51
f 39//51 86//51 255//51 138//51
f 39//5 138//5 266//5 156//5
f 39//5 156//5 262//5 89//5
f 39//51 89//51 230//51 86//51
f 40//51 100//51 256//51 139//51
f 40//25 139//25 267//25 157//25
f 40//51 157//51 264//51 104//51
f 40//51 104//51 238//51 100//51
f 41//51 161//51 293//51 212//51
f 41//25 212//25 299//25 173//25
f 41//25 173//25 283//25 174//25
f 41//51 174//51 271//51 161//51
f 42//51 158//51 230//51 89//51
f 42//5 89//5 262//5 172//5
f 42//5 172//5 282//5 175//5
f 42//51 175//51 268//51 158//51
f 43//82 211//82 292//82 159//82
f 43//82 159//82 269//82 176//82
f 43//85 176//85 280//85 170//85
f 43//85 170//85 298//85 211//85
f 44//89 128//89 228//89 160//89
f 44//78 160//78 270//78 177//78
f 44//81 177//81 281//81 171//81
f 44//90 171//90 252//90 128//90
f 45//70 210//70 298//70 170//70
f 45//91 170//91 280//91 178//91
f 45//73 178//73 281//73 195//73
f 45//73 195//73 290//73 210//73
f 46//5 172//5 262//5 145//5
f 46//5 145//5 247//5 169//5
f 46//5 169//5 279//5 179//5
f 46//5 179//5 282//5 172//5
f 47//25 173//25 299//25 209//25
f 47//25 209//25 297//25 168//25
f 47//25 168//25 278//25 180//25
f 47//25 180//25 283//25 173//25
f 48//92 191//92 286//92 208//92
f 48//93 208//93 296//93 167//93
f 48//94 167//94 277//94 181//94
f 48//95 181//95 272//95 191//95
f 49//96 90//96 227//96 81//96
f 49//97 81//97 240//97 166//97
f 49//98 166//98 276//98 182//98
f 49//99 182//99 273//99 90//99
f 50//100 166//100 240//100 105//100
f 50//101 105//101 232//101 165//101
f 50//102 165//102 275//102 183//102
f 50//103 183//103 276//103 166//103
f 51//104 167//104 296//104 207//104
f 51//105 207//105 295//105 164//105
f 51//106 164//106 274//106 184//106
f 51//107 184//107 277//107 167//107
f 52//108 164//108 295//108 206//108
f 52//31 206//31 285//31 190//31
f 52//31 190//31 270//31 185//31
f 52//109 185//109 274//109 164//109
f 53//25 168//25 297//25 205//25
f 53//110 205//110 286//110 191//110
f 53//111 191//111 272//111 186//111
f 53//25 186//25 278//25 168//25
f 54//112 165//112 232//112 92//112
f 54//113 92//113 229//113 78//113
f 54//22 78//22 269//22 187//22
f 54//114 187//114 275//114 165//114
f 55//5 169//5 247//5 116//5
f 55//115 116//115 227//115 90//115
f 55//116 90//116 273//116 188//116
f 55//5 188//5 279//5 169//5
f 56//117 202//117 245//117 114//117
f 56//118 114//118 220//118 88//118
f 56//119 88//119 286//119 205//119
f 56//25 205//25 297//25 202//25
f 57//120 200//120 235//120 95//120
f 57//121 95//121 224//121 80//121
f 57//31 80//31 285//31 206//31
f 57//122 206//122 295//122 200//122
f 58//123 201//123 241//123 106//123
f 58//124 106//124 235//124 200//124
f 58//125 200//125 295//125 207//125
f 58//126 207//126 296//126 201//126
f 59//127 88//127 220//127 91//127
f 59//128 91//128 241//128 201//128
f 59//129 201//129 296//129 208//129
f 59//130 208//130 286//130 88//130
f 60//117 204//117 260//117 143//117
f 60//117 143//117 245//117 202//117
f 60//25 202//25 297//25 209//25
f 60//25 209//25 299//25 204//25
f 61//131 124//131 251//131 203//131
f 61//70 203//70 298//70 210//70
f 61//73 210//73 290//73 127//73
f 61//132 127//132 250//132 124//132
f 62//133 130//133 225//133 197//133
f 62//82 197//82 292//82 211//82
f 62//85 211//85 298//85 203//85
f 62//134 203//134 251//134 130//134
f 63//51 198//51 223//51 74//51
f 63//117 74//117 260//117 204//117
f 63//25 204//25 299//25 212//25
f 63//51 212//51 293//51 198//51
f 64//51 189//51 268//51 175//51
f 64//5 175//5 282//5 196//5
f 64//5 196//5 291//5 213//5
f 64//51 213//51 284//51 189//51
f 65//78 177//78 270//78 190//78
f 65//78 190//78 285//78 214//78
f 65//81 214//81 290//81 195//81
f 65//81 195//81 281//81 177//81
f 66//5 196//5 282//5 179//5
f 66//5 179//5 279//5 194//5
f 66//5 194//5 289//5 215//5
f 66//5 215//5 291//5 196//5
f 67//135 163//135 273//135 182//135
f 67//136 182//136 276//136 193//136
f 67//137 193//137 288//137 216//137
f 67//138 216//138 294//138 163//138
f 68//139 193//139 276//139 183//139
f 68//140 183//140 275//140 192//140
f 68//141 192//141 287//141 217//141
f 68//142 217//142 288//142 193//142
f 69//143 192//143 275//143 187//143
f 69//22 187//22 269//22 159//22
f 69//22 159//22 292//22 218//22
f 69//144 218//144 287//144 192//144
f 70//5 194//5 279//5 188//5
f 70//145 188//145 273//145 163//145
f 70//146 163//146 294//146 219//146
f 70//5 219//5 289//5 194//5
