# Blender v2.76 (sub 0) OBJ File: 'Joust.blend'
# www.blender.org
mtllib Joust.mtl
o Cube.004
v -0.054491 0.000000 -0.027246
v 0.041380 0.000000 -0.054491
v 0.036327 0.000000 0.440485
v 0.000000 -0.036327 0.440485
v 0.000000 0.036327 0.440485
v 0.000000 0.054491 -0.027246
v 0.000000 -0.054491 -0.027246
v 0.054491 0.000000 -0.027246
v -0.036327 0.000000 0.440485
v 0.000000 0.028270 -0.128233
v 0.000000 -0.041380 -0.054491
v 0.000000 0.041380 -0.054491
v -0.041380 0.000000 -0.054491
v 0.022478 0.000000 -0.201975
v -0.028270 0.000000 -0.128233
v 0.028270 0.000000 -0.128233
v 0.000000 -0.028270 -0.128233
v 0.000000 0.000000 -0.201975
v 0.000000 -0.022478 -0.201975
v 0.000000 0.022478 -0.201975
v -0.022478 0.000000 -0.201975
v -0.022705 -0.022705 0.550606
v -0.040868 0.040868 -0.027246
v -0.051213 0.000000 -0.047680
v 0.000000 -0.051213 -0.047680
v 0.000000 0.051213 -0.047680
v 0.051213 0.000000 -0.047680
v 0.040868 -0.040868 -0.027246
v -0.040868 -0.040868 -0.027246
v 0.040868 0.040868 -0.027246
v 0.000000 0.049950 0.103310
v 0.000000 -0.049950 0.103310
v 0.049950 0.000000 0.103310
v -0.049950 0.000000 0.103310
v -0.031547 0.000000 -0.072927
v 0.000000 -0.031547 -0.072927
v 0.000000 0.031547 -0.072927
v 0.031547 0.000000 -0.072927
v 0.031035 -0.031035 -0.054491
v 0.031035 0.031035 -0.054491
v -0.031035 -0.031035 -0.054491
v -0.031035 0.031035 -0.054491
v -0.026822 0.000000 -0.183540
v 0.000000 -0.026822 -0.183540
v 0.000000 0.026822 -0.183540
v 0.026822 0.000000 -0.183540
v 0.021202 0.021202 -0.128233
v -0.021202 0.021202 -0.128233
v -0.021202 -0.021202 -0.128233
v 0.021202 -0.021202 -0.128233
v 0.022705 0.022705 0.550606
v -0.022705 0.022705 0.550606
v 0.022705 -0.022705 0.550606
v -0.013963 0.000000 -0.201975
v 0.000000 -0.013963 -0.201975
v 0.000000 0.013963 -0.201975
v 0.013963 0.000000 -0.201975
v 0.016858 -0.016858 -0.201975
v 0.016858 0.016858 -0.201975
v -0.016858 -0.016858 -0.201975
v -0.016858 0.016858 -0.201975
v 0.000000 0.000000 0.770849
v -0.038410 -0.038410 -0.047680
v -0.038410 0.038410 -0.047680
v 0.038410 -0.038410 -0.047680
v 0.038410 0.038410 -0.047680
v -0.036327 -0.036327 0.130840
v -0.036327 0.036327 0.130840
v 0.036327 -0.036327 0.130840
v 0.036327 0.036327 0.130840
v -0.023660 -0.023660 -0.072927
v -0.023660 0.023660 -0.072927
v 0.023660 -0.023660 -0.072927
v 0.023660 0.023660 -0.072927
v -0.020116 -0.020116 -0.183540
v -0.020116 0.020116 -0.183540
v 0.020116 -0.020116 -0.183540
v 0.020116 0.020116 -0.183540
v -0.011201 -0.011201 -0.201975
v -0.011201 0.011201 -0.201975
v 0.011201 -0.011201 -0.201975
v 0.011201 0.011201 -0.201975
vn 0.939400 -0.340400 0.039900
vn 0.939400 0.340400 0.039900
vn 0.994000 0.000000 0.109300
vn -0.340400 -0.939400 0.039900
vn 0.340400 -0.939400 0.039900
vn 0.000000 -0.994000 0.109300
vn 0.340400 0.939400 0.039900
vn -0.340400 0.939400 0.039900
vn 0.000000 0.994000 0.109300
vn -0.994000 0.000000 0.109300
vn -0.939400 0.340400 0.039900
vn -0.939400 -0.340400 0.039900
vn -0.946300 -0.321500 0.034800
vn -0.946300 0.321500 0.034800
vn -0.937900 0.312600 -0.150400
vn -0.937900 -0.312600 -0.150400
vn 0.559400 0.186500 -0.807600
vn 0.559400 -0.186500 -0.807600
vn 0.846500 -0.282200 -0.451500
vn 0.846500 0.282200 -0.451500
vn 0.312600 0.937900 -0.150400
vn -0.312600 0.937900 -0.150400
vn -0.321500 0.946300 0.034800
vn 0.321500 0.946300 0.034800
vn -0.312600 -0.937900 -0.150400
vn 0.312600 -0.937900 -0.150400
vn 0.321500 -0.946300 0.034800
vn -0.321500 -0.946300 0.034800
vn 0.937900 -0.312600 -0.150400
vn 0.937900 0.312600 -0.150400
vn 0.946300 0.321500 0.034800
vn 0.946300 -0.321500 0.034800
vn -0.315700 0.947200 -0.056100
vn 0.315700 0.947200 -0.056100
vn 0.316100 0.948400 -0.024800
vn -0.316100 0.948400 -0.024800
vn 0.186500 -0.559400 -0.807600
vn -0.186500 -0.559400 -0.807600
vn -0.282200 -0.846500 -0.451500
vn 0.282200 -0.846500 -0.451500
vn -0.186500 0.559400 -0.807600
vn 0.186500 0.559400 -0.807600
vn 0.282200 0.846500 -0.451500
vn -0.282200 0.846500 -0.451500
vn -0.559400 -0.186500 -0.807600
vn -0.559400 0.186500 -0.807600
vn -0.846500 0.282200 -0.451500
vn -0.846500 -0.282200 -0.451500
vn 0.925800 0.308600 -0.218100
vn 0.925800 -0.308600 -0.218100
vn 0.000000 0.000000 -1.000000
vn -0.947200 -0.315700 -0.056100
vn -0.947200 0.315700 -0.056100
vn -0.948400 0.316100 -0.024800
vn -0.948400 -0.316100 -0.024800
vn 0.947200 0.315700 -0.056100
vn 0.947200 -0.315700 -0.056100
vn 0.948400 -0.316100 -0.024800
vn 0.948400 0.316100 -0.024800
vn 0.315700 -0.947200 -0.056100
vn -0.315700 -0.947200 -0.056100
vn -0.316100 -0.948400 -0.024800
vn 0.316100 -0.948400 -0.024800
vn 0.308600 -0.925800 -0.218100
vn -0.308600 -0.925800 -0.218100
vn -0.308600 0.925800 -0.218100
vn 0.308600 0.925800 -0.218100
vn -0.925800 -0.308600 -0.218100
vn -0.925800 0.308600 -0.218100
usemtl Blade.001
s off
f 3//1 53//1 69//1 33//1
f 3//2 33//2 70//2 51//2
f 3//3 51//3 62//3 53//3
f 4//4 22//4 67//4 32//4
f 4//5 32//5 69//5 53//5
f 4//6 53//6 62//6 22//6
f 5//7 51//7 70//7 31//7
f 5//8 31//8 68//8 52//8
f 5//9 52//9 62//9 51//9
f 9//10 22//10 62//10 52//10
f 9//11 52//11 68//11 34//11
f 9//12 34//12 67//12 22//12
usemtl Pummel.001
f 1//13 29//13 67//13 34//13
f 1//14 34//14 68//14 23//14
f 1//15 23//15 64//15 24//15
f 1//16 24//16 63//16 29//16
f 2//17 40//17 66//17 27//17
f 2//18 27//18 65//18 39//18
f 2//19 39//19 73//19 38//19
f 2//20 38//20 74//20 40//20
f 6//21 30//21 66//21 26//21
f 6//22 26//22 64//22 23//22
f 6//23 23//23 68//23 31//23
f 6//24 31//24 70//24 30//24
f 7//25 29//25 63//25 25//25
f 7//26 25//26 65//26 28//26
f 7//27 28//27 69//27 32//27
f 7//28 32//28 67//28 29//28
f 8//29 28//29 65//29 27//29
f 8//30 27//30 66//30 30//30
f 8//31 30//31 70//31 33//31
f 8//32 33//32 69//32 28//32
f 10//33 48//33 72//33 37//33
f 10//34 37//34 74//34 47//34
f 10//35 47//35 78//35 45//35
f 10//36 45//36 76//36 48//36
f 11//37 39//37 65//37 25//37
f 11//38 25//38 63//38 41//38
f 11//39 41//39 71//39 36//39
f 11//40 36//40 73//40 39//40
f 12//41 42//41 64//41 26//41
f 12//42 26//42 66//42 40//42
f 12//43 40//43 74//43 37//43
f 12//44 37//44 72//44 42//44
f 13//45 41//45 63//45 24//45
f 13//46 24//46 64//46 42//46
f 13//47 42//47 72//47 35//47
f 13//48 35//48 71//48 41//48
f 14//49 59//49 78//49 46//49
f 14//50 46//50 77//50 58//50
f 14//51 58//51 81//51 57//51
f 14//51 57//51 82//51 59//51
f 15//52 49//52 71//52 35//52
f 15//53 35//53 72//53 48//53
f 15//54 48//54 76//54 43//54
f 15//55 43//55 75//55 49//55
f 16//56 47//56 74//56 38//56
f 16//57 38//57 73//57 50//57
f 16//58 50//58 77//58 46//58
f 16//59 46//59 78//59 47//59
f 17//60 50//60 73//60 36//60
f 17//61 36//61 71//61 49//61
f 17//62 49//62 75//62 44//62
f 17//63 44//63 77//63 50//63
f 18//51 55//51 79//51 54//51
f 18//51 54//51 80//51 56//51
f 18//51 56//51 82//51 57//51
f 18//51 57//51 81//51 55//51
f 19//64 58//64 77//64 44//64
f 19//65 44//65 75//65 60//65
f 19//51 60//51 79//51 55//51
f 19//51 55//51 81//51 58//51
f 20//66 61//66 76//66 45//66
f 20//67 45//67 78//67 59//67
f 20//51 59//51 82//51 56//51
f 20//51 56//51 80//51 61//51
f 21//68 60//68 75//68 43//68
f 21//69 43//69 76//69 61//69
f 21//51 61//51 80//51 54//51
f 21//51 54//51 79//51 60//51
