# Blender v2.76 (sub 0) OBJ File: 'Rocket.blend'
# www.blender.org
mtllib Rocket.mtl
o Cube.005
v -0.040695 0.373511 -0.162902
v 0.030904 0.357869 -0.324867
v 0.033065 0.372438 0.015176
v 0.000000 0.340633 0.057221
v 0.000000 0.367728 0.055834
v 0.000000 0.390559 -0.028860
v 0.000000 0.309275 -0.024700
v 0.040695 0.380398 -0.028340
v -0.038152 0.351579 0.005700
v 0.016787 0.320410 -0.356983
v 0.000000 0.343396 -0.337049
v 0.000000 0.316219 -0.356768
v 0.000000 0.349749 -0.358485
v -0.016787 0.345558 -0.358270
v 0.000000 0.303858 -0.322102
v -0.030904 0.357869 -0.324867
v -0.000000 0.365585 -0.325262
v 0.040695 0.373511 -0.162902
v 0.000000 0.302388 -0.159262
v 0.000000 0.383672 -0.163422
v -0.040695 0.380398 -0.028340
v -0.052909 0.338522 -0.050379
v 0.065124 0.328930 -0.237788
v -0.043118 0.324301 -0.376134
v -0.016787 0.328793 -0.357412
v 0.000000 0.330950 -0.336412
v 0.016787 0.337175 -0.357841
v 0.052909 0.338522 -0.050379
v 0.043118 0.324301 -0.376134
v -0.065124 0.328930 -0.237788
v -0.040695 0.312549 -0.159782
v 0.030904 0.311574 -0.322497
v 0.040695 0.319436 -0.025220
v 0.000000 0.324728 -0.336093
v -0.016787 0.320410 -0.356983
v -0.030904 0.311574 -0.322497
v 0.040695 0.312549 -0.159782
v -0.040695 0.319436 -0.025220
v 0.016787 0.328793 -0.357412
v -0.033065 0.331796 0.017256
v 0.000000 0.382868 0.019914
v 0.017804 0.353732 0.047764
v 0.033065 0.331796 0.017256
v -0.017804 0.353732 0.047764
v 0.016787 0.345558 -0.358270
v -0.052909 0.358843 -0.051419
v 0.065124 0.349251 -0.238828
v -0.043118 0.339732 -0.376924
v -0.016787 0.337175 -0.357841
v 0.000000 0.337173 -0.336730
v -0.033065 0.372438 0.015176
v 0.052909 0.358843 -0.051419
v 0.000000 0.321905 0.023034
v 0.038152 0.351579 0.005700
v 0.043118 0.339732 -0.376924
v -0.065124 0.349251 -0.238828
v -0.009538 0.345781 0.058276
v -0.030521 0.381132 -0.163292
v -0.038247 0.309558 -0.254131
v 0.000000 0.300009 -0.253642
v -0.000000 0.376403 -0.257552
v 0.038247 0.309558 -0.254131
v 0.030521 0.304928 -0.159392
v -0.030521 0.311815 -0.024830
v 0.030521 0.388018 -0.028730
v 0.000000 0.389332 -0.003056
v 0.000000 0.313129 0.000844
v 0.038787 0.323222 -0.000990
v -0.038787 0.323222 -0.000990
v 0.023178 0.305787 -0.322201
v -0.022479 0.316043 -0.358806
v 0.000000 0.310430 -0.358519
v -0.000000 0.355329 -0.360817
v 0.022479 0.316043 -0.358806
v 0.023178 0.363656 -0.325163
v 0.009538 0.362715 0.057409
v -0.023527 0.380260 0.018729
v 0.023527 0.324378 0.021589
v -0.010428 0.323648 -0.341316
v 0.000000 0.321045 -0.341182
v 0.000000 0.346540 -0.342487
v 0.010428 0.323648 -0.341316
v 0.012590 0.317267 -0.356822
v 0.012590 0.348701 -0.358431
v -0.012590 0.317267 -0.356822
v -0.012590 0.348701 -0.358431
v -0.023178 0.305787 -0.322201
v -0.023178 0.363656 -0.325163
v -0.030521 0.388018 -0.028730
v 0.030521 0.311815 -0.024830
v -0.030521 0.304928 -0.159392
v 0.030521 0.381132 -0.163292
v 0.040695 0.317017 -0.072471
v 0.000000 0.306857 -0.071951
v 0.000000 0.388140 -0.076111
v -0.040695 0.317017 -0.072471
v -0.059622 0.343390 -0.341386
v 0.059622 0.343390 -0.341386
v 0.043113 0.358341 -0.011469
v -0.043113 0.358341 -0.011469
v -0.025532 0.337816 -0.373167
v 0.025532 0.337816 -0.373167
v -0.010428 0.337174 -0.342008
v 0.010428 0.337174 -0.342008
v 0.062070 0.355131 -0.123941
v -0.062070 0.355131 -0.123941
v -0.059017 0.348065 -0.062958
v 0.077338 0.337121 -0.276791
v -0.049225 0.330664 -0.402953
v -0.016787 0.332984 -0.357626
v 0.000000 0.334062 -0.336571
v 0.016787 0.332984 -0.357626
v 0.059017 0.348065 -0.062958
v 0.049225 0.330664 -0.402953
v -0.077338 0.337121 -0.276791
v -0.059622 0.324291 -0.340409
v 0.059622 0.324291 -0.340409
v 0.043113 0.343100 -0.010689
v -0.043113 0.343100 -0.010689
v -0.025532 0.326591 -0.372593
v 0.025532 0.326591 -0.372593
v 0.023527 0.380260 0.018729
v -0.009538 0.362715 0.057409
v -0.010428 0.330411 -0.341662
v 0.010428 0.330411 -0.341662
v 0.062070 0.334810 -0.122901
v -0.062070 0.334810 -0.122901
v -0.046802 0.321724 -0.179543
v 0.033957 0.318614 -0.336104
v 0.043749 0.329287 -0.031770
v 0.000000 0.327839 -0.336252
v -0.016787 0.324602 -0.357197
v -0.033957 0.318614 -0.336104
v 0.046802 0.321724 -0.179543
v -0.043749 0.329287 -0.031770
v 0.016787 0.324602 -0.357197
v -0.035608 0.341688 0.011478
v 0.000000 0.374541 0.039670
v 0.025434 0.363085 0.031470
v -0.023527 0.324378 0.021589
v 0.009538 0.345781 0.058276
v -0.038247 0.366854 -0.257063
v 0.038247 0.366854 -0.257063
v 0.038787 0.379105 -0.003850
v -0.038787 0.379105 -0.003850
v -0.022479 0.349717 -0.360530
v 0.022479 0.349717 -0.360530
v -0.010428 0.343936 -0.342354
v 0.010428 0.343936 -0.342354
v 0.040695 0.377980 -0.075591
v -0.040695 0.377980 -0.075591
v -0.025434 0.363085 0.031470
v 0.035608 0.341688 0.011478
v 0.025434 0.342764 0.032510
v -0.025434 0.342764 0.032510
v 0.016787 0.341367 -0.358056
v -0.043749 0.369929 -0.033850
v 0.046802 0.362366 -0.181623
v -0.033957 0.349477 -0.337684
v -0.016787 0.341367 -0.358056
v 0.000000 0.340284 -0.336889
v -0.035608 0.362009 0.010438
v 0.043749 0.369929 -0.033850
v 0.000000 0.332206 0.041837
v 0.035608 0.362009 0.010438
v 0.033957 0.349477 -0.337684
v -0.046802 0.362366 -0.181623
v 0.000000 0.354663 0.065948
v -0.028685 0.302396 -0.253764
v -0.028685 0.374016 -0.257430
v 0.028685 0.302396 -0.253764
v 0.028685 0.374016 -0.257430
v -0.028773 0.315652 0.000386
v -0.028773 0.386775 -0.003254
v 0.028773 0.315652 0.000386
v 0.028773 0.386775 -0.003254
v -0.016859 0.311833 -0.358591
v -0.016859 0.353926 -0.360745
v 0.016859 0.311833 -0.358591
v 0.016859 0.353926 -0.360745
v -0.008365 0.320720 -0.345271
v -0.008365 0.346445 -0.346587
v 0.008365 0.320720 -0.345271
v 0.008365 0.346445 -0.346587
v -0.030521 0.385600 -0.075981
v 0.030521 0.309397 -0.072081
v -0.030521 0.309397 -0.072081
v 0.030521 0.385600 -0.075981
v -0.070310 0.331657 -0.383547
v 0.070310 0.331657 -0.383547
v 0.048555 0.349898 -0.027152
v -0.048555 0.349898 -0.027152
v -0.027059 0.331865 -0.379486
v 0.027059 0.331865 -0.379486
v -0.010428 0.333792 -0.341835
v 0.010428 0.333792 -0.341835
v 0.072758 0.343707 -0.148116
v -0.072758 0.343707 -0.148116
v -0.043591 0.318016 -0.275945
v 0.043591 0.318016 -0.275945
v 0.040187 0.333238 -0.004332
v -0.040187 0.333238 -0.004332
v -0.023242 0.321486 -0.362397
v 0.023242 0.321486 -0.362397
v 0.016532 0.371298 0.038518
v -0.016532 0.371298 0.038518
v -0.010428 0.327030 -0.341489
v 0.010428 0.327030 -0.341489
v 0.046039 0.326546 -0.085339
v -0.046039 0.326546 -0.085339
v -0.016532 0.335313 0.040360
v 0.016532 0.335313 0.040360
v -0.043591 0.356213 -0.277900
v 0.043591 0.356213 -0.277900
v 0.040187 0.368800 -0.006152
v -0.040187 0.368800 -0.006152
v -0.023242 0.343935 -0.363546
v 0.023242 0.343935 -0.363546
v -0.010428 0.340555 -0.342181
v 0.010428 0.340555 -0.342181
v 0.046039 0.367187 -0.087419
v -0.046039 0.367187 -0.087419
v -0.030521 0.352386 0.021474
v 0.030521 0.352386 0.021474
vn 0.900400 0.022200 0.434400
vn 0.949600 0.077400 0.303900
vn 0.621900 0.681700 0.385400
vn 0.709900 0.468800 0.525700
vn -0.265900 -0.813400 0.517400
vn 0.265900 -0.813400 0.517400
vn 0.000000 -0.528200 0.849100
vn 0.265900 0.861900 0.431600
vn -0.265900 0.861900 0.431600
vn 0.000000 0.612100 0.790700
vn -0.900400 0.022200 0.434400
vn -0.946300 0.099800 0.307500
vn -0.953400 0.015400 0.301200
vn -0.946300 -0.067900 0.316100
vn -0.709900 -0.412700 0.570800
vn -0.949600 -0.046000 0.310200
vn -0.621900 -0.638700 0.453000
vn 0.101600 0.952600 0.286900
vn -0.101600 0.952600 0.286900
vn -0.155100 0.894800 0.418600
vn 0.155100 0.894800 0.418600
vn 0.805600 -0.268000 0.528400
vn 0.805600 0.320600 0.498300
vn 0.715000 0.035700 0.698200
vn 0.621900 -0.638700 0.453000
vn 0.949600 -0.046000 0.310200
vn 0.709900 -0.412700 0.570800
vn -0.715000 0.035700 0.698200
vn -0.805600 0.320600 0.498300
vn -0.805600 -0.268000 0.528400
vn -0.709900 0.468800 0.525700
vn -0.621900 0.681700 0.385400
vn -0.949600 0.077400 0.303900
vn -0.101600 -0.918300 0.382700
vn 0.101600 -0.918300 0.382700
vn 0.155100 -0.847400 0.507800
vn -0.155100 -0.847400 0.507800
vn 0.946300 -0.067900 0.316100
vn 0.953400 0.015400 0.301200
vn 0.946300 0.099800 0.307500
vn -0.873900 0.485700 -0.021200
vn -0.600000 0.799000 -0.040900
vn -0.599700 0.797000 -0.071900
vn -0.832900 0.549900 -0.061700
vn 0.744200 0.643700 -0.178300
vn 0.722100 0.592800 -0.356600
vn 0.577700 0.755400 -0.309200
vn 0.595100 0.785800 -0.168600
vn 0.083000 0.995200 -0.050900
vn -0.083000 0.995200 -0.050900
vn -0.085600 0.995000 0.050800
vn 0.085600 0.995000 0.050800
vn -0.083000 -0.995200 0.050900
vn 0.083000 -0.995200 0.050900
vn 0.085600 -0.984600 0.152100
vn -0.085600 -0.984600 0.152100
vn 0.930800 0.365600 0.002400
vn 0.600000 0.799000 -0.040900
vn 0.602200 0.793900 0.084400
vn 0.979500 0.168400 0.110500
vn -0.596400 -0.253500 -0.761600
vn -0.172000 0.180100 -0.968500
vn -0.510200 0.768000 -0.387200
vn -0.927800 -0.019100 -0.372600
vn 0.451100 -0.045600 -0.891300
vn 0.209600 -0.863000 -0.459700
vn -0.209600 -0.863000 -0.459700
vn -0.451100 -0.045600 -0.891300
vn -0.028200 0.289400 -0.956800
vn 0.028200 0.289400 -0.956800
vn 0.092800 0.948200 -0.303700
vn -0.092800 0.948200 -0.303700
vn 0.028200 -0.385500 -0.922300
vn -0.028200 -0.385500 -0.922300
vn -0.092800 -0.974300 -0.205300
vn 0.092800 -0.974300 -0.205300
vn 0.596500 0.174400 -0.783500
vn 0.172000 -0.278100 -0.945000
vn 0.510200 -0.803500 -0.306800
vn 0.927800 -0.019100 -0.372600
vn -0.082600 -0.995000 -0.055900
vn -0.080900 -0.980900 -0.177000
vn 0.080900 -0.980900 -0.177000
vn 0.082600 -0.995000 -0.055900
vn -0.744200 0.643700 -0.178300
vn -0.595100 0.785800 -0.168600
vn -0.577700 0.755400 -0.309200
vn -0.722100 0.592800 -0.356600
vn 0.082600 0.984100 -0.157200
vn 0.080900 0.957700 -0.276200
vn -0.080900 0.957700 -0.276200
vn -0.082600 0.984100 -0.157200
vn 0.832900 0.549900 -0.061700
vn 0.599700 0.797000 -0.071900
vn 0.873900 0.485700 -0.021200
vn -0.083000 -0.996200 0.025100
vn 0.083000 -0.996200 0.025100
vn 0.083000 0.993600 -0.076700
vn -0.083000 0.993600 -0.076700
vn -0.979500 0.168400 0.110500
vn -0.602200 0.793900 0.084400
vn -0.930800 0.365600 0.002400
vn -0.928600 -0.296900 0.222500
vn -0.944400 -0.188600 0.269400
vn -0.864500 -0.479700 0.150100
vn -0.708500 -0.698600 0.100100
vn 0.424500 -0.905200 0.019400
vn 0.574400 -0.818500 0.005100
vn 0.697000 -0.714700 0.058400
vn 0.529200 -0.846800 0.053000
vn -0.205600 -0.976700 -0.062200
vn -0.224100 -0.965100 -0.135600
vn 0.330200 -0.866700 -0.374000
vn 0.008000 -0.977300 -0.211800
vn 0.790400 -0.360200 -0.495500
vn 0.880900 -0.185100 -0.435700
vn -0.790400 0.307700 -0.529700
vn -0.880900 0.139600 -0.452300
vn 0.708500 -0.698600 0.100100
vn 0.864500 -0.479700 0.150100
vn 0.944400 -0.188600 0.269400
vn 0.928600 -0.296900 0.222500
vn 0.205600 -0.976700 -0.062200
vn -0.008000 -0.977300 -0.211800
vn -0.330200 -0.866700 -0.374000
vn 0.224100 -0.965100 -0.135600
vn -0.529200 -0.846800 0.053000
vn -0.697000 -0.714700 0.058400
vn -0.574400 -0.818500 0.005100
vn -0.424500 -0.905200 0.019400
vn -0.600000 -0.799000 0.040900
vn -0.873900 -0.485300 0.028500
vn -0.832900 -0.553300 -0.005300
vn -0.599700 -0.800200 0.009800
vn 0.595000 -0.798900 -0.087500
vn 0.577700 -0.783100 -0.230400
vn 0.722100 -0.626100 -0.294200
vn 0.744200 -0.658500 -0.111700
vn 0.600000 -0.799000 0.040900
vn 0.930800 -0.363500 0.039700
vn 0.979500 -0.156300 0.127100
vn 0.602200 -0.781100 0.165000
vn 0.209600 0.811600 -0.545400
vn -0.209600 0.811500 -0.545400
vn 0.172000 0.180100 -0.968500
vn 0.596500 -0.253500 -0.761600
vn 0.510200 0.768000 -0.387200
vn -0.595000 -0.798900 -0.087500
vn -0.744200 -0.658500 -0.111700
vn -0.722100 -0.626100 -0.294200
vn -0.577700 -0.783100 -0.230400
vn 0.599700 -0.800200 0.009800
vn 0.832900 -0.553300 -0.005300
vn 0.873900 -0.485300 0.028500
vn -0.602200 -0.781100 0.165000
vn -0.979500 -0.156300 0.127100
vn -0.930800 -0.363500 0.039700
vn -0.880900 -0.185100 -0.435700
vn -0.790400 -0.360200 -0.495500
vn -0.172000 -0.278100 -0.945000
vn -0.596500 0.174400 -0.783500
vn -0.510200 -0.803500 -0.306800
vn -0.944400 0.215200 0.248800
vn -0.928600 0.318000 0.191100
vn -0.708500 0.705200 0.028200
vn -0.864500 0.492500 0.100400
vn 0.574400 0.814800 -0.078500
vn 0.424500 0.902500 -0.073100
vn 0.529200 0.847800 -0.033700
vn 0.697000 0.716900 -0.014800
vn -0.224100 0.946200 -0.233400
vn -0.205600 0.965200 -0.161600
vn 0.008000 0.950500 -0.310500
vn 0.330200 0.824000 -0.460500
vn 0.880900 0.139600 -0.452300
vn 0.790400 0.307700 -0.529700
vn 0.864500 0.492500 0.100400
vn 0.708500 0.705200 0.028200
vn 0.928600 0.318000 0.191100
vn 0.944400 0.215200 0.248800
vn 0.224100 0.946200 -0.233400
vn -0.330200 0.824000 -0.460500
vn -0.008000 0.950500 -0.310500
vn 0.205600 0.965200 -0.161600
vn -0.697000 0.716900 -0.014800
vn -0.529200 0.847800 -0.033700
vn -0.424500 0.902500 -0.073100
vn -0.574400 0.814800 -0.078500
usemtl Blade.002
s off
f 3//1 139//1 224//1 165//1
f 3//2 165//2 215//2 144//2
f 3//3 144//3 176//3 122//3
f 3//4 122//4 205//4 139//4
f 4//5 57//5 211//5 164//5
f 4//6 164//6 212//6 141//6
f 4//7 141//7 168//7 57//7
f 5//8 76//8 205//8 138//8
f 5//9 138//9 206//9 123//9
f 5//10 123//10 168//10 76//10
f 9//11 137//11 223//11 162//11
f 9//12 162//12 216//12 100//12
f 9//13 100//13 192//13 119//13
f 9//14 119//14 202//14 137//14
f 40//15 140//15 211//15 155//15
f 40//11 155//11 223//11 137//11
f 40//16 137//16 202//16 69//16
f 40//17 69//17 173//17 140//17
f 41//18 122//18 176//18 66//18
f 41//19 66//19 174//19 77//19
f 41//20 77//20 206//20 138//20
f 41//21 138//21 205//21 122//21
f 42//22 141//22 212//22 154//22
f 42//1 154//1 224//1 139//1
f 42//23 139//23 205//23 76//23
f 42//24 76//24 168//24 141//24
f 43//25 78//25 175//25 68//25
f 43//26 68//26 201//26 153//26
f 43//1 153//1 224//1 154//1
f 43//27 154//27 212//27 78//27
f 44//28 57//28 168//28 123//28
f 44//29 123//29 206//29 152//29
f 44//11 152//11 223//11 155//11
f 44//30 155//30 211//30 57//30
f 51//31 152//31 206//31 77//31
f 51//32 77//32 174//32 145//32
f 51//33 145//33 216//33 162//33
f 51//11 162//11 223//11 152//11
f 53//34 140//34 173//34 67//34
f 53//35 67//35 175//35 78//35
f 53//36 78//36 212//36 164//36
f 53//37 164//37 211//37 140//37
f 54//38 153//38 201//38 118//38
f 54//39 118//39 191//39 99//39
f 54//40 99//40 215//40 165//40
f 54//1 165//1 224//1 153//1
usemtl Pummel.002
f 1//41 167//41 222//41 151//41
f 1//42 151//42 185//42 58//42
f 1//43 58//43 170//43 142//43
f 1//44 142//44 213//44 167//44
f 2//45 143//45 214//45 166//45
f 2//46 166//46 218//46 147//46
f 2//47 147//47 180//47 75//47
f 2//48 75//48 172//48 143//48
f 6//49 65//49 188//49 95//49
f 6//50 95//50 185//50 89//50
f 6//51 89//51 174//51 66//51
f 6//52 66//52 176//52 65//52
f 7//53 64//53 187//53 94//53
f 7//54 94//54 186//54 90//54
f 7//55 90//55 175//55 67//55
f 7//56 67//56 173//56 64//56
f 8//57 163//57 221//57 150//57
f 8//58 150//58 188//58 65//58
f 8//59 65//59 176//59 144//59
f 8//60 144//60 215//60 163//60
f 10//61 136//61 204//61 74//61
f 10//62 74//62 179//62 83//62
f 10//63 83//63 183//63 82//63
f 10//64 82//64 208//64 136//64
f 11//65 161//65 219//65 148//65
f 11//66 148//66 182//66 81//66
f 11//67 81//67 184//67 149//67
f 11//68 149//68 220//68 161//68
f 12//69 83//69 179//69 72//69
f 12//70 72//70 177//70 85//70
f 12//71 85//71 181//71 80//71
f 12//72 80//72 183//72 83//72
f 13//73 86//73 178//73 73//73
f 13//74 73//74 180//74 84//74
f 13//75 84//75 184//75 81//75
f 13//76 81//76 182//76 86//76
f 14//77 160//77 217//77 146//77
f 14//78 146//78 178//78 86//78
f 14//79 86//79 182//79 148//79
f 14//80 148//80 219//80 160//80
f 15//81 60//81 169//81 87//81
f 15//82 87//82 177//82 72//82
f 15//83 72//83 179//83 70//83
f 15//84 70//84 171//84 60//84
f 16//85 159//85 213//85 142//85
f 16//86 142//86 170//86 88//86
f 16//87 88//87 178//87 146//87
f 16//88 146//88 217//88 159//88
f 17//89 61//89 172//89 75//89
f 17//90 75//90 180//90 73//90
f 17//91 73//91 178//91 88//91
f 17//92 88//92 170//92 61//92
f 18//93 158//93 214//93 143//93
f 18//94 143//94 172//94 92//94
f 18//58 92//58 188//58 150//58
f 18//95 150//95 221//95 158//95
f 19//96 91//96 169//96 60//96
f 19//97 60//97 171//97 63//97
f 19//54 63//54 186//54 94//54
f 19//53 94//53 187//53 91//53
f 20//98 92//98 172//98 61//98
f 20//99 61//99 170//99 58//99
f 20//50 58//50 185//50 95//50
f 20//49 95//49 188//49 92//49
f 21//100 157//100 216//100 145//100
f 21//101 145//101 174//101 89//101
f 21//42 89//42 185//42 151//42
f 21//102 151//102 222//102 157//102
f 22//103 135//103 202//103 119//103
f 22//104 119//104 192//104 107//104
f 22//105 107//105 198//105 127//105
f 22//106 127//106 210//106 135//106
f 23//107 134//107 200//107 117//107
f 23//108 117//108 190//108 108//108
f 23//109 108//109 197//109 126//109
f 23//110 126//110 209//110 134//110
f 24//111 133//111 199//111 116//111
f 24//112 116//112 189//112 109//112
f 24//113 109//113 193//113 120//113
f 24//114 120//114 203//114 133//114
f 25//115 132//115 203//115 120//115
f 25//116 120//116 193//116 110//116
f 25//80 110//80 195//80 124//80
f 25//80 124//80 207//80 132//80
f 26//65 131//65 207//65 124//65
f 26//65 124//65 195//65 111//65
f 26//68 111//68 196//68 125//68
f 26//68 125//68 208//68 131//68
f 27//117 156//117 218//117 102//117
f 27//118 102//118 194//118 112//118
f 27//64 112//64 196//64 104//64
f 27//64 104//64 220//64 156//64
f 28//119 130//119 209//119 126//119
f 28//120 126//120 197//120 113//120
f 28//121 113//121 191//121 118//121
f 28//122 118//122 201//122 130//122
f 29//123 117//123 200//123 129//123
f 29//124 129//124 204//124 121//124
f 29//125 121//125 194//125 114//125
f 29//126 114//126 190//126 117//126
f 30//127 128//127 210//127 127//127
f 30//128 127//128 198//128 115//128
f 30//129 115//129 189//129 116//129
f 30//130 116//130 199//130 128//130
f 31//131 91//131 187//131 96//131
f 31//132 96//132 210//132 128//132
f 31//133 128//133 199//133 59//133
f 31//134 59//134 169//134 91//134
f 32//135 62//135 171//135 70//135
f 32//136 70//136 179//136 74//136
f 32//137 74//137 204//137 129//137
f 32//138 129//138 200//138 62//138
f 33//139 90//139 186//139 93//139
f 33//140 93//140 209//140 130//140
f 33//141 130//141 201//141 68//141
f 33//142 68//142 175//142 90//142
f 34//143 80//143 181//143 79//143
f 34//65 79//65 207//65 131//65
f 34//68 131//68 208//68 82//68
f 34//144 82//144 183//144 80//144
f 35//145 85//145 177//145 71//145
f 35//146 71//146 203//146 132//146
f 35//80 132//80 207//80 79//80
f 35//147 79//147 181//147 85//147
f 36//148 87//148 169//148 59//148
f 36//149 59//149 199//149 133//149
f 36//150 133//150 203//150 71//150
f 36//151 71//151 177//151 87//151
f 37//152 63//152 171//152 62//152
f 37//153 62//153 200//153 134//153
f 37//154 134//154 209//154 93//154
f 37//139 93//139 186//139 63//139
f 38//155 64//155 173//155 69//155
f 38//156 69//156 202//156 135//156
f 38//157 135//157 210//157 96//157
f 38//131 96//131 187//131 64//131
f 39//158 112//158 194//158 121//158
f 39//159 121//159 204//159 136//159
f 39//64 136//64 208//64 125//64
f 39//64 125//64 196//64 112//64
f 45//160 84//160 180//160 147//160
f 45//161 147//161 218//161 156//161
f 45//64 156//64 220//64 149//64
f 45//162 149//162 184//162 84//162
f 46//163 107//163 192//163 100//163
f 46//164 100//164 216//164 157//164
f 46//165 157//165 222//165 106//165
f 46//166 106//166 198//166 107//166
f 47//167 108//167 190//167 98//167
f 47//168 98//168 214//168 158//168
f 47//169 158//169 221//169 105//169
f 47//170 105//170 197//170 108//170
f 48//171 109//171 189//171 97//171
f 48//172 97//172 213//172 159//172
f 48//173 159//173 217//173 101//173
f 48//174 101//174 193//174 109//174
f 49//175 110//175 193//175 101//175
f 49//176 101//176 217//176 160//176
f 49//80 160//80 219//80 103//80
f 49//80 103//80 195//80 110//80
f 50//65 111//65 195//65 103//65
f 50//65 103//65 219//65 161//65
f 50//68 161//68 220//68 104//68
f 50//68 104//68 196//68 111//68
f 52//177 113//177 197//177 105//177
f 52//178 105//178 221//178 163//178
f 52//179 163//179 215//179 99//179
f 52//180 99//180 191//180 113//180
f 55//181 98//181 190//181 114//181
f 55//182 114//182 194//182 102//182
f 55//183 102//183 218//183 166//183
f 55//184 166//184 214//184 98//184
f 56//185 115//185 198//185 106//185
f 56//186 106//186 222//186 167//186
f 56//187 167//187 213//187 97//187
f 56//188 97//188 189//188 115//188
