# Blender v2.79 (sub 0) OBJ File: 'Gun.blend'
# www.blender.org
mtllib Turret_Gun.mtl
o Cube.002
v -0.111701 0.238012 -0.332447
v -0.111701 0.258783 -0.097244
v 0.111701 0.258783 -0.097244
v 0.111701 0.238012 -0.332447
v 0.111701 0.248247 -0.213508
v -0.111701 0.248247 -0.213508
v -0.000000 0.258783 -0.097244
v -0.000000 0.238012 -0.332447
v -0.083965 0.354066 -0.340503
v -0.083965 0.361760 -0.251097
v -0.000000 0.324596 -0.374726
v -0.111701 0.312061 -0.117631
v -0.000000 0.312061 -0.117630
v 0.111701 0.312061 -0.117630
v 0.083965 0.361760 -0.251097
v 0.083965 0.354066 -0.340503
v -0.000000 0.332290 -0.251097
v 0.055850 0.258783 -0.097244
v 0.055850 0.238012 -0.332447
v 0.055850 0.312061 -0.117630
v 0.041983 0.339331 -0.357615
v 0.041983 0.347025 -0.251097
v -0.055851 0.238012 -0.332447
v -0.055851 0.258783 -0.097244
v -0.041983 0.339331 -0.357615
v -0.055851 0.312061 -0.117630
v -0.041983 0.347025 -0.251097
v -0.083965 0.399103 -0.344040
v -0.083965 0.406797 -0.254635
v 0.083965 0.406797 -0.254634
v 0.083965 0.399103 -0.344040
v 0.041983 0.384368 -0.361152
v 0.041983 0.392062 -0.254634
v -0.041983 0.384368 -0.361152
v -0.041983 0.392062 -0.254634
v -0.000000 0.407208 -0.361152
v -0.000000 0.414902 -0.254634
v -0.000000 0.421943 -0.344040
v -0.000000 0.429636 -0.254634
v -0.000000 0.332290 -0.067834
v -0.000000 0.324596 -0.564471
v 0.041983 0.339331 -0.564017
v -0.041983 0.339331 -0.564017
v 0.041983 0.384368 -0.567554
v -0.041983 0.384368 -0.567554
v -0.000000 0.407208 -0.567554
v -0.000000 0.363200 -0.568638
v 0.041983 0.347025 -0.067834
v -0.041983 0.347025 -0.067834
v 0.041983 0.392062 -0.071371
v -0.041983 0.392062 -0.071371
v -0.000000 0.414902 -0.071371
v -0.000000 0.347231 -0.068518
v 0.025734 0.356263 -0.068518
v -0.025734 0.356263 -0.068518
v 0.025734 0.383869 -0.070686
v -0.025734 0.383869 -0.070686
v -0.000000 0.397869 -0.070686
v -0.000000 0.347231 0.207102
v 0.025734 0.356263 0.207102
v -0.025734 0.356263 0.207102
v 0.025734 0.383869 0.204933
v -0.025734 0.383869 0.204933
v -0.000000 0.397869 0.204933
v -0.000000 0.352488 0.206861
v 0.020017 0.359513 0.206861
v -0.020017 0.359513 0.206861
v 0.020017 0.380987 0.205174
v -0.020017 0.380987 0.205174
v -0.000000 0.391877 0.205174
v -0.000000 0.352488 -0.022198
v 0.020017 0.359513 -0.022198
v -0.020017 0.359513 -0.022198
v 0.020017 0.380987 -0.023885
v -0.020017 0.380987 -0.023885
v -0.000000 0.391877 -0.023885
v -0.000000 0.370894 -0.023041
vn -0.9871 0.1333 -0.0887
vn 0.9727 0.2311 -0.0199
vn -0.0000 0.3574 0.9340
vn -0.1877 -0.1132 -0.9757
vn 0.1457 0.9673 0.2076
vn -0.1457 0.9673 0.2076
vn -0.9727 0.2311 -0.0199
vn 0.9871 0.1333 -0.0887
vn 0.2095 -0.3166 -0.9251
vn 0.1877 -0.1132 -0.9757
vn -1.0000 -0.0000 -0.0000
vn -0.1411 0.9371 0.3192
vn 0.1411 0.9371 0.3192
vn -0.2095 -0.3166 -0.9251
vn 0.3167 -0.9456 0.0743
vn -0.3167 -0.9456 0.0743
vn 0.0275 0.0783 0.9966
vn 1.0000 0.0000 0.0000
vn -0.3980 -0.0718 -0.9146
vn -0.0275 0.0783 0.9966
vn 0.3980 -0.0718 -0.9146
vn 0.2153 0.5937 -0.7754
vn -0.0000 -0.0000 1.0000
vn -0.2616 0.9616 -0.0828
vn 0.2616 0.9616 -0.0828
vn -0.2153 0.5937 -0.7754
vn -0.3190 -0.9456 0.0632
vn 0.3190 -0.9456 0.0632
vn -0.4769 0.8767 -0.0633
vn 0.4769 0.8767 -0.0633
vn 0.4779 0.8784 0.0000
vn -0.3312 -0.9436 0.0000
vn 0.3312 -0.9436 0.0000
vn -0.4779 0.8784 0.0000
vn -0.0134 0.0246 -0.9996
vn 0.0484 -0.1072 -0.9931
vn -0.0651 -0.0781 -0.9948
vn -0.0484 -0.1072 -0.9931
vn 0.0134 0.0246 -0.9996
vn 0.0651 -0.0781 -0.9948
vn -0.0025 0.0783 0.9969
vn -0.0161 0.0458 0.9988
vn -0.0218 0.0401 0.9990
vn 0.0025 0.0783 0.9969
vn 0.0161 0.0458 0.9988
vn 0.0218 0.0401 0.9990
vn 0.3312 0.9436 0.0000
vn -0.4779 -0.8784 0.0000
vn -0.3312 0.9436 0.0000
vn 0.4779 -0.8784 0.0000
usemtl Body
s off
f 6//1 2//1 12//1 10//1
f 5//2 4//2 16//2 15//2
f 18//3 3//3 14//3 20//3
f 23//4 1//4 9//4 25//4
f 26//5 13//5 17//5 27//5
f 20//6 22//6 17//6 13//6
f 1//7 6//7 10//7 9//7
f 3//8 5//8 15//8 14//8
f 24//3 7//3 13//3 26//3
f 19//9 8//9 11//9 21//9
f 4//10 19//10 21//10 16//10
f 9//11 10//11 29//11 28//11
f 14//12 15//12 22//12 20//12
f 7//3 18//3 20//3 13//3
f 2//3 24//3 26//3 12//3
f 12//13 26//13 27//13 10//13
f 8//14 23//14 25//14 11//14
f 31//15 30//15 33//15 32//15
f 28//16 34//16 35//16 29//16
f 10//17 27//17 35//17 29//17
f 15//18 16//18 31//18 30//18
f 25//19 9//19 28//19 34//19
f 22//20 15//20 30//20 33//20
f 16//21 21//21 32//21 31//21
f 38//22 31//22 32//22 36//22
f 37//23 33//23 30//23 39//23
f 38//24 28//24 29//24 39//24
f 31//25 38//25 39//25 30//25
f 35//23 37//23 39//23 29//23
f 28//26 38//26 36//26 34//26
usemtl Gun
f 25//27 11//27 17//27 27//27
f 21//28 22//28 17//28 11//28
f 21//18 32//18 33//18 22//18
f 27//11 35//11 34//11 25//11
f 36//29 34//29 35//29 37//29
f 32//30 36//30 37//30 33//30
f 32//18 21//18 42//18 44//18
f 36//31 32//31 44//31 46//31
f 11//32 25//32 43//32 41//32
f 25//11 34//11 45//11 43//11
f 21//33 11//33 41//33 42//33
f 34//34 36//34 46//34 45//34
f 45//35 46//35 47//35
f 42//36 41//36 47//36
f 45//37 47//37 43//37
f 41//38 43//38 47//38
f 44//39 47//39 46//39
f 44//40 42//40 47//40
f 27//11 49//11 51//11 35//11
f 37//31 52//31 50//31 33//31
f 27//32 17//32 40//32 49//32
f 22//33 48//33 40//33 17//33
f 22//18 33//18 50//18 48//18
f 37//34 35//34 51//34 52//34
f 49//41 55//41 57//41 51//41
f 48//42 54//42 53//42 40//42
f 52//43 51//43 57//43 58//43
f 48//44 50//44 56//44 54//44
f 49//45 40//45 53//45 55//45
f 52//46 58//46 56//46 50//46
f 54//18 56//18 62//18 60//18
f 55//32 53//32 59//32 61//32
f 58//31 64//31 62//31 56//31
f 55//11 61//11 63//11 57//11
f 54//33 60//33 59//33 53//33
f 58//34 57//34 63//34 64//34
f 60//42 66//42 65//42 59//42
f 64//43 63//43 69//43 70//43
f 60//44 62//44 68//44 66//44
f 61//45 59//45 65//45 67//45
f 64//46 70//46 68//46 62//46
f 61//41 67//41 69//41 63//41
f 67//47 65//47 71//47 73//47
f 70//48 76//48 74//48 68//48
f 67//18 73//18 75//18 69//18
f 66//49 72//49 71//49 65//49
f 70//50 69//50 75//50 76//50
f 66//11 68//11 74//11 72//11
f 76//43 75//43 77//43
f 72//44 74//44 77//44
f 73//45 71//45 77//45
f 76//46 77//46 74//46
f 73//41 77//41 75//41
f 72//42 77//42 71//42
